<?xml version="1.0" encoding="UTF-8" standalone="no"?>
<svg
   xmlns:dc="http://purl.org/dc/elements/1.1/"
   xmlns:cc="http://creativecommons.org/ns#"
   xmlns:rdf="http://www.w3.org/1999/02/22-rdf-syntax-ns#"
   xmlns:svg="http://www.w3.org/2000/svg"
   xmlns="http://www.w3.org/2000/svg"
   xmlns:sodipodi="http://sodipodi.sourceforge.net/DTD/sodipodi-0.dtd"
   xmlns:inkscape="http://www.inkscape.org/namespaces/inkscape"
   viewBox="0 0 317.059 189.688"
   version="1.1"
   id="svg710"
   sodipodi:docname="header-illustration.svg"
   inkscape:version="0.92.4 (5da689c313, 2019-01-14)">
  <metadata
     id="metadata714">
    <rdf:RDF>
      <cc:Work
         rdf:about="">
        <dc:format>image/svg+xml</dc:format>
        <dc:type
           rdf:resource="http://purl.org/dc/dcmitype/StillImage" />
      </cc:Work>
    </rdf:RDF>
  </metadata>
  <sodipodi:namedview
     pagecolor="#ffffff"
     bordercolor="#666666"
     borderopacity="1"
     objecttolerance="10"
     gridtolerance="10"
     guidetolerance="10"
     inkscape:pageopacity="0"
     inkscape:pageshadow="2"
     inkscape:window-width="741"
     inkscape:window-height="405"
     id="namedview712"
     showgrid="false"
     inkscape:zoom="14.720555"
     inkscape:cx="83.873769"
     inkscape:cy="66.158298"
     inkscape:window-x="1551"
     inkscape:window-y="188"
     inkscape:window-maximized="0"
     inkscape:current-layer="svg710" />
  <defs
     id="defs11">
    <style
       id="style2">.cls-1{isolation:isolate;}.cls-2{fill:url(#linear-gradient);}.cls-3{fill:#e0e3fd;}.cls-4{fill:#d1d4fc;}.cls-5{fill:#b2b8fa;}.cls-6{fill:#f3f4fe;}.cls-55,.cls-7{fill:#c1c6fb;}.cls-8{fill:#ffcebd;}.cls-9{fill:#ff5574;}.cls-10,.cls-145{fill:#191c3c;}.cls-11{fill:#6168ff;}.cls-12,.cls-22{fill:#fff;}.cls-13{fill:#4d5068;}.cls-14,.cls-18{fill:#231f20;}.cls-14{opacity:0.15;}.cls-15{fill:#474963;}.cls-16{fill:#75778a;}.cls-17{fill:#3b479a;}.cls-145,.cls-18{opacity:0.3;}.cls-19{fill:#ffc043;}.cls-20,.cls-30{fill:#f0f1fe;}.cls-21{mix-blend-mode:multiply;}.cls-22,.cls-66{opacity:0;}.cls-23,.cls-68{fill:#fdfdff;}.cls-23,.cls-67{opacity:0.024;}.cls-24,.cls-70{fill:#fbfcff;}.cls-24,.cls-69{opacity:0.049;}.cls-25,.cls-72{fill:#f9faff;}.cls-25,.cls-71{opacity:0.073;}.cls-26,.cls-74{fill:#f7f8ff;}.cls-26,.cls-73{opacity:0.098;}.cls-27,.cls-76{fill:#f6f6fe;}.cls-27,.cls-75{opacity:0.122;}.cls-28,.cls-78{fill:#f4f5fe;}.cls-28,.cls-77{opacity:0.146;}.cls-29,.cls-80{fill:#f2f3fe;}.cls-29,.cls-79{opacity:0.171;}.cls-30,.cls-81{opacity:0.195;}.cls-31,.cls-83{fill:#eeeffe;}.cls-31,.cls-82{opacity:0.22;}.cls-32,.cls-85{fill:#eceefe;}.cls-32,.cls-84{opacity:0.244;}.cls-33,.cls-87{fill:#eaecfe;}.cls-33,.cls-86{opacity:0.268;}.cls-34,.cls-89{fill:#e8eafe;}.cls-34,.cls-88{opacity:0.293;}.cls-35,.cls-91{fill:#e7e8fd;}.cls-35,.cls-90{opacity:0.317;}.cls-36,.cls-93{fill:#e5e7fd;}.cls-36,.cls-92{opacity:0.341;}.cls-37,.cls-95{fill:#e3e5fd;}.cls-37,.cls-94{opacity:0.366;}.cls-38,.cls-97{fill:#e1e3fd;}.cls-38,.cls-96{opacity:0.39;}.cls-39,.cls-99{fill:#dfe2fd;}.cls-39,.cls-98{opacity:0.415;}.cls-101,.cls-40{fill:#dde0fd;}.cls-100,.cls-40{opacity:0.439;}.cls-103,.cls-41{fill:#dbdefd;}.cls-102,.cls-41{opacity:0.463;}.cls-105,.cls-42{fill:#d9dcfd;}.cls-104,.cls-42{opacity:0.488;}.cls-107,.cls-43{fill:#d8dbfc;}.cls-106,.cls-43{opacity:0.512;}.cls-109,.cls-44{fill:#d6d9fc;}.cls-108,.cls-44{opacity:0.537;}.cls-111,.cls-45{fill:#d4d7fc;}.cls-110,.cls-45{opacity:0.561;}.cls-113,.cls-46{fill:#d2d5fc;}.cls-112,.cls-46{opacity:0.585;}.cls-115,.cls-47{fill:#d0d4fc;}.cls-114,.cls-47{opacity:0.61;}.cls-117,.cls-48{fill:#ced2fc;}.cls-116,.cls-48{opacity:0.634;}.cls-119,.cls-49{fill:#ccd0fc;}.cls-118,.cls-49{opacity:0.659;}.cls-121,.cls-50{fill:#cacffc;}.cls-120,.cls-50{opacity:0.683;}.cls-123,.cls-51{fill:#c9cdfb;}.cls-122,.cls-51{opacity:0.707;}.cls-125,.cls-52{fill:#c7cbfb;}.cls-124,.cls-52{opacity:0.732;}.cls-127,.cls-53{fill:#c5c9fb;}.cls-126,.cls-53{opacity:0.756;}.cls-129,.cls-54{fill:#c3c8fb;}.cls-128,.cls-54{opacity:0.78;}.cls-130,.cls-55{opacity:0.805;}.cls-132,.cls-56{fill:#bfc4fb;}.cls-131,.cls-56{opacity:0.829;}.cls-134,.cls-57{fill:#bdc2fb;}.cls-133,.cls-57{opacity:0.854;}.cls-136,.cls-58{fill:#bbc1fb;}.cls-135,.cls-58{opacity:0.878;}.cls-138,.cls-59{fill:#babffa;}.cls-137,.cls-59{opacity:0.902;}.cls-140,.cls-60{fill:#b8bdfa;}.cls-139,.cls-60{opacity:0.927;}.cls-142,.cls-61{fill:#b6bbfa;}.cls-141,.cls-61{opacity:0.951;}.cls-144,.cls-62{fill:#b4bafa;}.cls-143,.cls-62{opacity:0.976;}.cls-63{fill:#ffdfd6;}.cls-64{fill:#717386;}.cls-65{fill:#3a3c4e;}.cls-146{fill:#fe5e31;}.cls-147{opacity:0.35;}.cls-148{fill:#ff5f00;}.cls-149{fill:#ff7f33;}</style>
    <linearGradient
       id="linear-gradient"
       x1="35.199"
       y1="214.99"
       x2="282.198"
       y2="54.991"
       gradientUnits="userSpaceOnUse">
      <stop
         offset="0"
         stop-color="#dfe1fd"
         id="stop4" />
      <stop
         offset="0.454"
         stop-color="#ebecfe"
         id="stop6" />
      <stop
         offset="1"
         stop-color="#f4f5fe"
         id="stop8" />
    </linearGradient>
  </defs>
  <title
     id="title13">header-illustration</title>
  <path
     inkscape:connector-curvature="0"
     style="isolation:isolate;fill:url(#linear-gradient)"
     id="path15"
     d="m 311.36,131.746 c 5.5,8.781 8.206,19.733 2.628,28.063 -4.8,7.174 -14.327,10.048 -19.137,17.218 -2.43,3.621 -3.709,8.358 -7.5,10.507 -2.33,1.32 -5.145,1.355 -7.822,1.355 l -242.153,0.024 c -2.706,0 -5.518,-0.022 -7.958,-1.194 -2.927,-1.405 -4.879,-4.26 -6.327,-7.167 a 40.233,40.233 0 0 1 5.029,-42.707 c 5.92,-7.08 14.329,-12.083 18.9,-20.1 3.979,-6.984 4.514,-15.317 5.829,-23.247 1.66,-10.05 5.784,-20.298 15.462,-24.618 11.6,-5.184 23.242,-9.56 32.252,-18.972 9.73,-10.166 15.217,-24.632 27.315,-31.82 11.6,-6.89 26.347,-5.225 39.267,-1.353 12.92,3.872 25.442,9.757 38.892,10.761 16.491,1.231 33.543,-4.96 49.327,-0.024 a 37.007,37.007 0 0 1 23.519,22.784 c 5.28,15.178 0.224,32.69 6.431,47.513 4.646,11.1 14.781,18.742 22.455,28.006 a 46.526,46.526 0 0 1 3.591,4.971 z"
     class="cls-2" />
  <rect
     style="isolation:isolate;fill:#e0e3fd"
     id="rect18"
     ry="3.3399999"
     rx="3.3399999"
     height="74.807999"
     width="63.825001"
     y="114.758"
     x="193.476"
     class="cls-3" />
  <rect
     style="isolation:isolate;fill:#d1d4fc"
     id="rect20"
     ry="1.813"
     rx="1.813"
     height="17.333"
     width="53.667"
     y="120.566"
     x="198.55499"
     class="cls-4" />
  <rect
     style="isolation:isolate;fill:#d1d4fc"
     id="rect22"
     ry="1.813"
     rx="1.813"
     height="17.333"
     width="53.667"
     y="143.399"
     x="198.55499"
     class="cls-4" />
  <rect
     style="isolation:isolate;fill:#d1d4fc"
     id="rect24"
     ry="1.813"
     rx="1.813"
     height="17.333"
     width="53.667"
     y="166.233"
     x="198.55499"
     class="cls-4" />
  <circle
     style="isolation:isolate;fill:#e0e3fd"
     id="circle26"
     r="1.8329999"
     cy="129.233"
     cx="225.38901"
     class="cls-3" />
  <circle
     style="isolation:isolate;fill:#e0e3fd"
     id="circle28"
     r="1.8329999"
     cy="152.162"
     cx="225.38901"
     class="cls-3" />
  <circle
     style="isolation:isolate;fill:#e0e3fd"
     id="circle30"
     r="1.8329999"
     cy="175.091"
     cx="225.38901"
     class="cls-3" />
  <path
     style="isolation:isolate;fill:#d1d4fc"
     inkscape:connector-curvature="0"
     id="path32"
     d="m 77.631,80.66 c -14.357,8.89 -9.89,29.678 -9.7,44.046 q 0.32,23.762 0.64,47.524 a 0.742,0.742 0 0 1 -1.482,0 q -0.383,-28.4 -0.765,-56.8 C 66.144,102.062 63.857,87.441 76.88,79.377 a 0.742,0.742 0 0 1 0.748,1.28 v 0 z"
     class="cls-4" />
  <path
     style="isolation:isolate;fill:#d1d4fc"
     inkscape:connector-curvature="0"
     id="path34"
     d="m 69.658,87.891 a 18.1,18.1 0 0 1 2.316,-3.934 19.26,19.26 0 0 1 5.607,-4.1 l 0.3,0.16 a 17.793,17.793 0 0 1 1.172,9.617 10.681,10.681 0 0 1 -5.521,7.682 c -2.163,1.04 -4.719,1.176 -6.737,2.474 -0.572,-4.103 1.089,-8.159 2.863,-11.899 z"
     class="cls-4" />
  <path
     style="isolation:isolate;fill:#d1d4fc"
     inkscape:connector-curvature="0"
     id="path36"
     d="m 54.619,62.676 c 14.259,5.656 11.19,27.286 11.765,39.475 0.974,20.671 1.5,41.341 1.366,62.037 a 0.742,0.742 0 0 1 -1.482,0 q 0.169,-25.811 -0.891,-51.607 C 65.051,104.812 64.661,97.045 64.293,89.281 63.867,80.263 64.282,68.097 54.225,64.108 53.349,63.76 53.731,62.326 54.619,62.679 v 0 z"
     class="cls-4" />
  <path
     style="isolation:isolate;fill:#d1d4fc"
     inkscape:connector-curvature="0"
     id="path38"
     d="m 64.38,87.554 c 0.026,-0.071 0.044,-0.145 0.069,-0.217 a 6.7,6.7 0 0 1 0.577,1.09 z"
     class="cls-4" />
  <path
     style="isolation:isolate;fill:#d1d4fc"
     inkscape:connector-curvature="0"
     id="path40"
     d="m 53.807,63.935 a 0.732,0.732 0 0 1 1.089,-0.492 15.576,15.576 0 0 1 9.887,9.88 21.46,21.46 0 0 1 -0.333,14.014 c -1.772,-2.8 -5.372,-4.2 -7.893,-6.519 C 52.082,76.7 51.395,69.519 53.807,63.935 Z"
     class="cls-4" />
  <path
     style="isolation:isolate;fill:#b2b8fa"
     inkscape:connector-curvature="0"
     id="path42"
     d="m 73.212,188.995 h -12.93 a 5.822,5.822 0 0 1 -5.822,-5.822 l 0,-18.971 h 24.574 v 18.972 a 5.822,5.822 0 0 1 -5.822,5.821 z"
     class="cls-5" />
  <path
     style="isolation:isolate;fill:#d1d4fc"
     inkscape:connector-curvature="0"
     id="path44"
     d="m 66.1,134.774 c 0.223,-5.728 0.483,-12.512 -3.771,-17 -3.321,-3.5 -11.838,-5.92 -16.612,-6.044 a 0.742,0.742 0 0 1 0,-1.482 c 3.641,0.094 7.439,1.538 10.868,2.7 2.523,0.856 4.91,1.8 6.792,3.776 4.57,4.788 4.444,11.9 4.205,18.05 a 0.742,0.742 0 0 1 -1.482,0 z"
     class="cls-4" />
  <path
     style="isolation:isolate;fill:#d1d4fc"
     inkscape:connector-curvature="0"
     id="path46"
     d="m 44.119,109.65 a 0.463,0.463 0 0 1 0.363,-0.1 l 5.376,0.046 a 18.955,18.955 0 0 1 4.624,0.419 c 3.03,0.788 5.484,3.027 7.4,5.5 l 0.558,0.085 c -2.8,0.892 -5.542,2.063 -8.462,2.367 -2.92,0.304 -6.155,-0.436 -7.984,-2.732 a 11.122,11.122 0 0 1 -1.926,-5.2 0.462,0.462 0 0 1 0.051,-0.385 z"
     class="cls-4" />
  <path
     id="_Path_"
     data-name="&lt;Path&gt;"
     class="cls-3"
     d="m 232.03,104.1 h -10.006 v 3.042 a 8.623,8.623 0 0 0 2.277,5.838 v 0 1.52 h 5.451 v -1.518 0 a 8.623,8.623 0 0 0 2.277,-5.838 V 104.1 Z"
     inkscape:connector-curvature="0"
     style="isolation:isolate;fill:#e0e3fd" />
  <path
     id="_Path_2"
     data-name="&lt;Path&gt;"
     class="cls-6"
     d="m 229.972,104.1 v 3.042 a 8.623,8.623 0 0 1 -2.277,5.838 v 0 1.52 h 1.176 v -1.518 0 a 8.623,8.623 0 0 0 2.277,-5.838 V 104.1 Z"
     inkscape:connector-curvature="0"
     style="isolation:isolate;fill:#f3f4fe" />
  <g
     style="isolation:isolate"
     id="_Group_8"
     data-name="&lt;Group&gt;">
    <path
       id="_Path_3"
       data-name="&lt;Path&gt;"
       class="cls-3"
       d="m 223.108,110.429 h -1.646 a 2.714,2.714 0 1 1 0,-5.428 h 1.058 v 1.15 h -1.058 a 1.564,1.564 0 1 0 0,3.128 h 1.646 z"
       inkscape:connector-curvature="0"
       style="fill:#e0e3fd" />
  </g>
  <path
     id="_Path_4"
     data-name="&lt;Path&gt;"
     class="cls-4"
     d="m 223.547,104.124 v 2.6 a 0.753,0.753 0 0 0 0.753,0.753 v 0 a 0.753,0.753 0 0 0 0.753,-0.753 v -0.1 a 0.641,0.641 0 0 1 0.641,-0.641 v 0 a 0.64,0.64 0 0 1 0.64,0.641 v 4.247 a 0.736,0.736 0 0 0 0.736,0.736 v 0 a 0.736,0.736 0 0 0 0.736,-0.736 v -1.763 a 0.722,0.722 0 0 1 0.722,-0.722 v 0 a 0.75,0.75 0 0 0 0.75,-0.75 v -3.513 h -5.732 z"
     inkscape:connector-curvature="0"
     style="isolation:isolate;fill:#d1d4fc" />
  <path
     style="isolation:isolate;fill:#e0e3fd"
     inkscape:connector-curvature="0"
     id="path60"
     d="m 292.388,141.31 a 11.256,11.256 0 0 0 -0.885,-4.378 23.868,23.868 0 0 0 -4.61,20.924 l 1.393,1.294 a 14.47,14.47 0 0 0 4.029,-8.385 43.082,43.082 0 0 0 0.073,-9.455 z"
     class="cls-3" />
  <path
     style="isolation:isolate;fill:#e0e3fd"
     inkscape:connector-curvature="0"
     id="path62"
     d="m 305.092,149.429 a 0.734,0.734 0 0 0 -0.407,-0.19 10.624,10.624 0 0 0 -12.943,10.375 l 0.939,1.134 c 1.981,0.54 4.051,-0.469 5.695,-1.7 a 20.268,20.268 0 0 0 6.714,-8.856 0.759,0.759 0 0 0 0.002,-0.763 z"
     class="cls-3" />
  <path
     style="isolation:isolate;fill:#e0e3fd"
     inkscape:connector-curvature="0"
     id="path64"
     d="m 274.342,149.258 c -2.106,-1.711 -4.557,-3.384 -7.266,-3.219 a 0.861,0.861 0 0 0 -0.75,0.339 c -0.3,0.561 0.652,0.984 0.836,1.591 a 2.282,2.282 0 0 1 -0.14,1.086 3.54,3.54 0 0 0 0.328,1.974 15.509,15.509 0 0 0 16.114,9.324 l 0.824,-1.294 a 73.172,73.172 0 0 0 -9.946,-9.801 z"
     class="cls-3" />
  <path
     style="isolation:isolate;fill:#e0e3fd"
     inkscape:connector-curvature="0"
     id="path66"
     d="m 282.105,159.452 c 4.725,4.487 5.332,11.144 4.517,17.287 -0.177,1.337 1.927,1.324 2.1,0 0.887,-6.691 -0.026,-13.924 -5.133,-18.773 a 1.052,1.052 0 0 0 -1.487,1.487 v 0 z"
     class="cls-3" />
  <path
     style="isolation:isolate;fill:#e0e3fd"
     inkscape:connector-curvature="0"
     id="path68"
     d="m 286.72,157.32 c 1,5.906 -0.275,11.872 0.356,17.806 0.142,1.332 2.246,1.346 2.1,0 -0.652,-6.129 0.6,-12.257 -0.431,-18.365 -0.225,-1.331 -2.252,-0.767 -2.028,0.559 v 0 z"
     class="cls-3" />
  <path
     style="isolation:isolate;fill:#e0e3fd"
     inkscape:connector-curvature="0"
     id="path70"
     d="m 292.882,156.9 a 29.613,29.613 0 0 0 -4.3,8.494 c -0.88,3.311 -0.628,7.035 -0.78,10.436 a 1.052,1.052 0 0 0 2.1,0 c 0.143,-3.205 -0.089,-6.762 0.705,-9.877 a 27.463,27.463 0 0 1 4.085,-7.992 c 0.752,-1.129 -1.068,-2.183 -1.816,-1.061 v 0 z"
     class="cls-3" />
  <path
     style="isolation:isolate;fill:#b2b8fa"
     inkscape:connector-curvature="0"
     id="path72"
     d="m 295.251,189.073 h -11.737 a 1.063,1.063 0 0 1 -1.027,-0.791 l -4,-15.082 a 1.063,1.063 0 0 1 1.027,-1.335 h 19.728 a 1.063,1.063 0 0 1 1.027,1.335 l -4,15.082 a 1.063,1.063 0 0 1 -1.018,0.791 z"
     class="cls-5" />
  <path
     style="isolation:isolate;fill:#c1c6fb"
     inkscape:connector-curvature="0"
     id="path74"
     d="m 290.969,139.2 c -1.563,5.891 -1.576,12.034 -3,17.952 a 0.152,0.152 0 0 0 0.293,0.081 c 1.423,-5.918 1.436,-12.062 3,-17.952 a 0.152,0.152 0 0 0 -0.293,-0.081 z"
     class="cls-7" />
  <path
     style="isolation:isolate;fill:#c1c6fb"
     inkscape:connector-curvature="0"
     id="path76"
     d="m 292.9,158.927 a 20.1,20.1 0 0 1 10.417,-8.243 c 0.183,-0.064 0.1,-0.358 -0.081,-0.293 a 20.431,20.431 0 0 0 -10.6,8.383 0.152,0.152 0 0 0 0.262,0.153 v 0 z"
     class="cls-7" />
  <path
     style="isolation:isolate;fill:#c1c6fb"
     inkscape:connector-curvature="0"
     id="path78"
     d="m 267.778,147.92 a 12.182,12.182 0 0 0 4.69,5.493 c 3,2.1 6.853,3.135 9.6,5.49 0.173,0.149 0.427,-0.1 0.252,-0.252 -1.911,-1.639 -4.346,-2.315 -6.51,-3.55 -3.107,-1.773 -6.314,-3.82 -7.689,-7.275 -0.084,-0.211 -0.429,-0.119 -0.344,0.095 v 0 z"
     class="cls-7" />
  <rect
     style="isolation:isolate;fill:#ffcebd"
     id="rect80"
     transform="scale(-1)"
     height="7.0910001"
     width="4.6570001"
     y="-182.51399"
     x="-251.14699"
     class="cls-8" />
  <path
     style="isolation:isolate;fill:#b3b3b3;fill-opacity:1"
     inkscape:connector-curvature="0"
     id="path82"
     d="m 251.775,180.688 a 29.085,29.085 0 0 0 1.072,5.476 3.129,3.129 0 0 1 0.366,0.911 v 2.613 H 242.2 V 188.3 a 2.971,2.971 0 0 1 0.588,-1.768 c 0.937,-1.269 3.725,-3.892 3.287,-5.844 z"
     class="cls-9" />
  <path
     style="isolation:isolate;fill:#191c3c"
     inkscape:connector-curvature="0"
     id="path84"
     d="m 251.749,180.688 h 0.026 l -0.013,0.071 c -0.003,-0.023 -0.01,-0.049 -0.013,-0.071 z"
     class="cls-10" />
  <path
     style="isolation:isolate;fill:#191c3c"
     inkscape:connector-curvature="0"
     id="path86"
     d="m 253.213,187.8 v 1.884 H 242.2 V 188.3 a 2.935,2.935 0 0 1 0.044,-0.5 h 10.973 z"
     class="cls-10" />
  <rect
     style="isolation:isolate;fill:#191c3c"
     id="rect88"
     transform="scale(-1)"
     ry="0.271"
     rx="0.271"
     height="0.68000001"
     width="3.0350001"
     y="-182.854"
     x="-249.89099"
     class="cls-10" />
  <rect
     style="isolation:isolate;fill:#191c3c"
     id="rect90"
     transform="scale(-1)"
     ry="0.271"
     rx="0.271"
     height="0.68000001"
     width="3.0350001"
     y="-184.37201"
     x="-249.52499"
     class="cls-10" />
  <rect
     style="isolation:isolate;fill:#ffcebd"
     id="rect92"
     transform="scale(-1)"
     height="7.0910001"
     width="4.6570001"
     y="-182.51399"
     x="-281.44299"
     class="cls-8" />
  <path
     style="isolation:isolate;fill:#aaccff;fill-opacity:1"
     inkscape:connector-curvature="0"
     id="path94"
     d="m 268.728,115.127 c -1.3,3.207 -9.181,31.063 -9.181,31.063 l -7.106,33.372 H 245.5 l 3.58,-37.87 2.616,-40.211 15.044,1.79 2.721,7.45 z"
     class="cls-11" />
  <polygon
     style="isolation:isolate;fill:#aaccff;fill-opacity:1"
     id="polygon96"
     points="266.742,103.271 283.234,104.785 284.494,109.055 284.06,142.656 282.407,179.562 275.797,179.562 273.134,150.138 266.742,115.49 "
     class="cls-11" />
  <path
     style="isolation:isolate;fill:#ffcebd"
     inkscape:connector-curvature="0"
     id="path98"
     d="m 267.672,60.9 h 9.915 V 47.842 h -10.845 c 2.514,3.264 0.93,13.058 0.93,13.058 z"
     class="cls-8" />
  <path
     style="isolation:isolate;fill:#ffffff"
     inkscape:connector-curvature="0"
     id="path100"
     d="m 283.234,107.54 c -0.322,7.734 -25.339,-4.731 -30.793,-1.836 l 6.61,-45.492 c 0,0 6.056,-2.408 8.621,-0.526 3.535,2.594 9.915,0 9.915,0 l 4.453,1.767 c 0,0 1.469,39.477 1.194,46.087 z"
     class="cls-12" />
  <path
     style="isolation:isolate;fill:#008066"
     inkscape:connector-curvature="0"
     id="path102"
     d="m 268.123,52.721 c 0,0 1.8,30.026 -13.055,49.035 0,0 -4.539,11.222 -8.212,11.773 0,0 -3.834,-9.732 0.848,-17.419 2.876,-4.722 8.43,-15.067 8.76,-20.586 l 0.945,-15.839 z"
     class="cls-9" />
  <path
     style="isolation:isolate;fill:#008066"
     inkscape:connector-curvature="0"
     id="path104"
     d="m 277.587,52.721 c 0,0 -4.34,19.673 -4.453,29.724 -0.092,8.171 12.6,35.42 12.6,35.42 0,0 7.833,-8.175 3.7,-17.624 -2.723,-6.229 -5.762,-11.154 -5.375,-15.245 l -0.1,-28.117 z"
     class="cls-9" />
  <path
     style="isolation:isolate;fill:#ffcebd"
     inkscape:connector-curvature="0"
     id="path106"
     d="m 263.306,45.366 a 17.024,17.024 0 0 1 0.725,-3.887 3.15,3.15 0 0 0 -1.136,-0.244 0.517,0.517 0 0 1 -0.322,-0.856 c 1.206,-1.343 3.415,-3.539 3.783,-4.343 a 6.387,6.387 0 0 1 0.718,-1.335 10.1,10.1 0 0 0 0.565,-0.992 1.768,1.768 0 0 1 1.21,-0.952 4.1,4.1 0 0 1 1.483,0.166 27.692,27.692 0 0 1 5.949,1.857 11.555,11.555 0 0 1 2.071,1.2 6.278,6.278 0 0 1 2.048,2.82 11.211,11.211 0 0 1 0.015,5.97 5.147,5.147 0 0 1 -0.432,1.405 4.476,4.476 0 0 1 -1.719,1.627 c -1.181,0.725 -2.409,1.369 -3.646,1.991 a 13.466,13.466 0 0 1 -2.285,0.975 13.119,13.119 0 0 1 -3.989,0.32 6.321,6.321 0 0 1 -3.034,-0.6 4.014,4.014 0 0 1 -1.72,-2.255 7.72,7.72 0 0 1 -0.284,-2.867 z"
     class="cls-8" />
  <path
     style="isolation:isolate;fill:#4d5068"
     inkscape:connector-curvature="0"
     id="path108"
     d="m 266.378,27.073 a 12.941,12.941 0 0 0 6.894,2.494 36.564,36.564 0 0 1 7.327,1.18 c 1.456,0.494 3.722,1.408 4.421,2.9 0.979,2.091 0.822,5.194 0.285,7.371 a 10.972,10.972 0 0 1 -2.288,4.5 12.452,12.452 0 0 1 -4.347,2.914 c -0.139,0.068 -0.276,0.138 -0.413,0.212 a 2.111,2.111 0 0 1 -0.431,0.25 c -0.277,0.057 -0.339,-0.42 -0.337,-0.635 a 2.432,2.432 0 0 1 0.381,-1.191 7.178,7.178 0 0 1 0.706,-0.864 4.941,4.941 0 0 0 0.724,-2.904 3.683,3.683 0 0 0 -0.094,-1.485 1.4,1.4 0 0 0 -1.037,-0.977 1.857,1.857 0 0 0 -1.41,0.587 7.55,7.55 0 0 0 -1.866,2.468 q -0.041,-1.307 -0.081,-2.614 a 6.391,6.391 0 0 0 -0.225,-1.784 c -0.244,-0.751 -0.774,-1.487 -0.586,-2.254 a 8.052,8.052 0 0 0 0.358,-1.02 1.36,1.36 0 0 0 -0.79,-1.253 5.035,5.035 0 0 0 -1.513,-0.4 c -0.81,-0.143 -1.571,-0.411 -2.357,-0.627 a 4.965,4.965 0 0 1 -2.046,-0.979 3.945,3.945 0 0 1 -1.133,-2.062 10.716,10.716 0 0 1 -0.2,-2.381 11.631,11.631 0 0 1 0.058,-1.446 z"
     class="cls-13" />
  <path
     style="isolation:isolate;fill:#ffcebd"
     inkscape:connector-curvature="0"
     id="path110"
     d="m 296.132,74.122 5.327,13.74 a 4.852,4.852 0 0 1 -0.375,4.282 l -16.933,21.556 -3,-4.51 10.859,-17.183 a 5.137,5.137 0 0 0 -0.115,-4.685 l -5.26,-9.255 c 0,0 6.375,2.375 9.497,-3.945 z"
     class="cls-8" />
  <path
     style="isolation:isolate;fill:#ffcebd"
     inkscape:connector-curvature="0"
     id="path112"
     d="m 281.147,109.192 -1.939,0.345 -1.34,1.234 a 1.208,1.208 0 0 0 -0.092,1.683 l 0.4,0.456 -0.6,0.96 a 1.108,1.108 0 0 0 0.08,1.287 l 1.873,2.3 a 1.108,1.108 0 0 0 1.444,0.242 l 2.03,-1.26 a 1.9,1.9 0 0 0 0.862,-1.25 l 0.29,-1.486 z"
     class="cls-8" />
  <path
     style="isolation:isolate;fill:#b3b3b3;fill-opacity:1"
     inkscape:connector-curvature="0"
     id="path114"
     d="m 282.071,180.688 a 6.575,6.575 0 0 0 1.623,5.476 1.385,1.385 0 0 1 0.366,0.911 v 2.613 H 273.594 V 188.3 a 2.972,2.972 0 0 1 0.588,-1.768 c 0.937,-1.269 2.623,-3.892 2.186,-5.844 h 5.7 z"
     class="cls-9" />
  <path
     style="isolation:isolate;fill:#191c3c"
     inkscape:connector-curvature="0"
     id="path116"
     d="m 282.045,180.688 h 0.026 l -0.013,0.071 c -0.003,-0.023 -0.01,-0.049 -0.013,-0.071 z"
     class="cls-10" />
  <path
     style="isolation:isolate;fill:#191c3c"
     inkscape:connector-curvature="0"
     id="path118"
     d="m 284.06,187.8 v 1.884 H 273.594 V 188.3 a 2.935,2.935 0 0 1 0.044,-0.5 z"
     class="cls-10" />
  <rect
     style="isolation:isolate;fill:#191c3c"
     id="rect120"
     transform="scale(-1)"
     ry="0.271"
     rx="0.271"
     height="0.68000001"
     width="3.0350001"
     y="-182.854"
     x="-280.18799"
     class="cls-10" />
  <rect
     style="isolation:isolate;fill:#191c3c"
     id="rect122"
     transform="scale(-1)"
     ry="0.271"
     rx="0.271"
     height="0.68000001"
     width="3.0350001"
     y="-184.37201"
     x="-279.82098"
     class="cls-10" />
  <path
     style="isolation:isolate;fill:#008066"
     inkscape:connector-curvature="0"
     id="path124"
     d="m 277.587,52.721 6.907,4.509 3.078,1.464 a 8.646,8.646 0 0 1 4.342,4.669 l 5.549,12.625 c -6,1.163 -6.243,6.58 -10.515,5.57 l -6.132,-14.6 -3.229,-7.276 z"
     class="cls-9" />
  <path
     style="isolation:isolate;fill:#008066;fill-opacity:1"
     inkscape:connector-curvature="0"
     id="path126"
     d="m 268.123,52.721 -6.923,2.971 -3.86,1.008 a 8.194,8.194 0 0 0 -5.395,4.551 L 245.5,74.062 c 4.131,0 8.425,5.535 9.089,4.467 l 7.918,-13.886 z"
     class="cls-9" />
  <path
     style="opacity:0.15;isolation:isolate;fill:#231f20"
     inkscape:connector-curvature="0"
     id="path128"
     d="m 265.934,49.735 a 1.944,1.944 0 0 1 0.96,-1.934 v 0 a 1.04,1.04 0 0 0 0.46,-0.548 l 0.611,-1.688 a 2.833,2.833 0 0 0 0.138,-1.38 l -0.195,-1.309 a 1.092,1.092 0 0 0 -1.529,-0.835 l -2.227,1.005 -1.374,1.348 -0.009,0.019 a 9.021,9.021 0 0 0 0.293,3.519 4.479,4.479 0 0 0 1.919,2.516 4.217,4.217 0 0 0 1.1,0.417 z"
     class="cls-14" />
  <path
     style="isolation:isolate;fill:#ffcebd"
     inkscape:connector-curvature="0"
     id="path130"
     d="m 246.261,74.584 15.044,-24.178 v -4.042 a 1.885,1.885 0 0 1 0.565,-1.346 l 1.7,-1.662 2,-0.9 a 0.979,0.979 0 0 1 1.371,0.748 l 0.174,1.173 a 2.538,2.538 0 0 1 -0.124,1.237 l -0.548,1.514 a 0.933,0.933 0 0 1 -0.412,0.491 v 0 a 1.743,1.743 0 0 0 -0.86,1.734 l 0.147,1.138 2.653,0.524 -3.324,2.558 L 253.8,78.54 a 4.27,4.27 0 0 1 -5.73,2.167 v 0 a 4.271,4.271 0 0 1 -1.809,-6.123 z"
     class="cls-8" />
  <path
     style="isolation:isolate;fill:#191c3c"
     inkscape:connector-curvature="0"
     id="path132"
     d="m 166.722,186.321 h 0.008 a 0.488,0.488 0 0 0 0.664,-0.187 l 15.432,-27.483 a 0.488,0.488 0 0 0 -0.186,-0.665 h -0.008 a 0.487,0.487 0 0 0 -0.664,0.186 l -15.433,27.484 a 0.488,0.488 0 0 0 0.187,0.665 z"
     class="cls-10" />
  <path
     style="isolation:isolate;fill:#474963"
     inkscape:connector-curvature="0"
     id="path134"
     d="m 169.09771,189.3909 -39.49299,-0.0214 a 1.041,1.041 0 0 1 -1.04044,-1.04157 l 6.5e-4,-1.2 a 1.042,1.042 0 0 1 1.04256,-1.04143 l 39.493,0.0214 a 1.041,1.041 0 0 1 1.04043,1.04157 l -6.5e-4,1.2 a 1.042,1.042 0 0 1 -1.04256,1.04143 z"
     class="cls-15" />
  <path
     style="isolation:isolate;fill:#191c3c"
     inkscape:connector-curvature="0"
     id="path136"
     d="m 128.565,187.615 a 1.5,1.5 0 0 1 0.371,-0.966 1.528,1.528 0 0 0 1.526,1.522 l 38.517,0.021 a 1.5,1.5 0 0 0 1.158,-0.561 v 0.235 a 1.529,1.529 0 0 1 -1.53,1.528 l -38.517,-0.021 a 1.529,1.529 0 0 1 -1.528,-1.53 v -0.228 z"
     class="cls-10" />
  <rect
     style="isolation:isolate;fill:#75778a"
     id="rect138"
     height="1.159"
     width="3.0220001"
     y="186.97099"
     x="139.32899"
     class="cls-16" />
  <rect
     style="isolation:isolate;fill:#75778a"
     id="rect140"
     height="1.159"
     width="3.0220001"
     y="186.96899"
     x="135.748"
     class="cls-16" />
  <rect
     style="isolation:isolate;fill:#75778a"
     id="rect142"
     height="1.159"
     width="3.0220001"
     y="186.983"
     x="161.172"
     class="cls-16" />
  <rect
     style="isolation:isolate;fill:#ffcebd"
     id="rect144"
     transform="rotate(-35.292)"
     height="9.0869999"
     width="6.2350001"
     y="138.13402"
     x="-76.170738"
     class="cls-8" />
  <path
     style="isolation:isolate;fill:#b3b3b3;fill-opacity:1"
     inkscape:connector-curvature="0"
     id="path146"
     d="m 19.067,158.782 -12.533,1.327 -2.741,1.541 a 1.829,1.829 0 0 1 -2.389,-0.537 l -1.085,-1.532 17.672,-12.509 a 2.185,2.185 0 0 1 3.046,0.521 l 0.976,1.379 a 11.216,11.216 0 0 1 1.94,4.839 l 0.2,1.369 v 0 a 2.483,2.483 0 0 0 -3.461,-0.592 l -1.036,0.733 a 2.483,2.483 0 0 0 -0.592,3.461 v 0 z"
     class="cls-11" />
  <path
     style="isolation:isolate;fill:#4d5068"
     inkscape:connector-curvature="0"
     id="path148"
     d="M 18.995,148.552 1.658,160.823 A 0.766,0.766 0 0 1 0.59,160.64 L 0,159.806 17.962,147.092 a 2.2,2.2 0 0 1 3.075,0.5 l 0.976,1.379 c 0.012,0.017 0.021,0.036 0.032,0.053 a 2.2,2.2 0 0 0 -3.05,-0.472 z"
     class="cls-13" />
  <polygon
     style="isolation:isolate;fill:#008066;fill-opacity:1"
     id="polygon150"
     points="50.007,185.331 48.228,181.081 25.909,156.76 20.159,161.062 41.408,189.463 45.444,187.549 "
     class="cls-17" />
  <rect
     style="isolation:isolate;fill:#ffcebd"
     id="rect152"
     transform="rotate(12.602)"
     height="9.0869999"
     width="6.2350001"
     y="137.1711"
     x="79.265068"
     class="cls-8" />
  <path
     style="isolation:isolate;fill:#b3b3b3;fill-opacity:1"
     inkscape:connector-curvature="0"
     id="path154"
     d="m 46.885,153.583 -9.385,-8.408 -2.981,-1 a 1.829,1.829 0 0 1 -1.2,-2.133 l 0.41,-1.832 21.129,4.724 a 2.185,2.185 0 0 1 1.655,2.609 l -0.369,1.649 a 11.216,11.216 0 0 1 -2.289,4.684 l -0.88,1.068 v 0 a 2.483,2.483 0 0 0 -1.881,-2.965 L 49.85,151.7 a 2.483,2.483 0 0 0 -2.965,1.881 v 0 z"
     class="cls-11" />
  <path
     style="isolation:isolate;fill:#4d5068"
     inkscape:connector-curvature="0"
     id="path156"
     d="m 54.462,146.678 -20.828,-4.7 a 0.775,0.775 0 0 1 -0.586,-0.925 l 0.221,-0.989 21.583,4.869 a 2.185,2.185 0 0 1 1.656,2.609 l -0.369,1.649 c 0,0.02 -0.013,0.039 -0.017,0.059 a 2.183,2.183 0 0 0 -1.66,-2.572 z"
     class="cls-13" />
  <path
     style="opacity:0.3;isolation:isolate;fill:#231f20"
     inkscape:connector-curvature="0"
     id="path158"
     d="m 45.51,178.118 -7.739,-8.433 -3.947,9.64 7.576,10.129 h 0.026 l 4.017,-1.905 4.563,-2.217 -1.779,-4.251 -1.305,-1.423 a 1.119,1.119 0 0 1 -1.466,-1.348 z"
     class="cls-18" />
  <path
     style="isolation:isolate;fill:#008066;fill-opacity:1"
     inkscape:connector-curvature="0"
     id="path160"
     d="m 79.44,169.065 -2.555,0.229 a 47.964,47.964 0 0 0 -17.564,5.069 l -10.267,5.251 a 1.126,1.126 0 0 1 -1.6,-1.3 l 6.518,-23.525 h -8.1 L 35.72,179.578 a 7.169,7.169 0 0 0 6.783,9.883 l 39.17,-0.315 z"
     class="cls-17" />
  <path
     style="isolation:isolate;fill:#aaccff;fill-opacity:1"
     inkscape:connector-curvature="0"
     id="path162"
     d="m 120.372,174.029 -3.9,6.323 a 6.105,6.105 0 0 1 -8,2.223 l -1.948,-1.005 -11.65,5.158 a 18.047,18.047 0 0 1 -6.471,1.526 l -9.603,1.272 c 0,0 -5.245,-12.8 -1.081,-20.9 v 0 a 32.21,32.21 0 0 0 27.79,-5.749 l 8.148,-6.326 z"
     class="cls-11" />
  <polygon
     style="isolation:isolate;fill:#ffcebd"
     id="polygon164"
     points="120.372,163.112 126.449,157.384 130.051,162.437 121.602,168.622 "
     class="cls-8" />
  <path
     style="isolation:isolate;fill:#ffcebd"
     inkscape:connector-curvature="0"
     id="path166"
     d="m 124.414,159.355 c -0.075,-2.366 1.679,-3.555 3.413,-4.4 a 23.454,23.454 0 0 1 12.3,-2.263 l 1.006,0.244 a 8.506,8.506 0 0 1 -0.764,3.611 9.272,9.272 0 0 0 0.079,4.639 0.2,0.2 0 0 1 -0.18,0.28 14.26,14.26 0 0 0 -2.346,0.163 c -0.222,0.368 -0.38,0.771 -0.57,1.157 a 5.567,5.567 0 0 1 -0.849,1.371 c -1.112,1.2 -2.99,1.186 -4.608,0.959 -2.289,-0.322 -4.652,-0.956 -6.224,-2.727 a 4.857,4.857 0 0 1 -1.257,-3.034 z"
     class="cls-8" />
  <path
     style="isolation:isolate;fill:#ffcebd"
     inkscape:connector-curvature="0"
     id="path168"
     d="m 122.982,165.822 2.664,15.366 a 1.93,1.93 0 0 0 1.642,1.582 l 22.92,2.492 4.864,0.769 4.443,1.164 3.51,0.112 v 0 a 1.9,1.9 0 0 1 -1.6,1.995 h -2.588 l -6.166,-0.302 -27.963,0.69 a 4.657,4.657 0 0 1 -4.494,-3.013 l -7.606,-20.185 z"
     class="cls-8" />
  <path
     style="isolation:isolate;fill:#4d5068;fill-opacity:1"
     inkscape:connector-curvature="0"
     id="path170"
     d="m 102.559,164.849 a 12.2,12.2 0 0 1 2.525,-3.536 16.731,16.731 0 0 1 3.291,-2.827 c 1.775,-1.1 3.563,-1.41 5.154,-2.823 a 17.06,17.06 0 0 0 3.685,-4.649 c 0.49,-0.909 0.9,-1.863 1.436,-2.745 a 12.5,12.5 0 0 1 8.029,-5.4 26.361,26.361 0 0 1 5.684,-0.879 20.341,20.341 0 0 1 6.441,1.141 10.543,10.543 0 0 1 4.128,2.163 5.072,5.072 0 0 1 1.19,5.222 5.5,5.5 0 0 1 -0.9,2 c -1.644,2.178 -5.16,2.3 -7.631,2.85 -1.526,0.337 -3.134,-0.15 -4.606,0.46 a 9.724,9.724 0 0 0 -3.2,2.781 25.882,25.882 0 0 0 -3.654,4.753 c -0.52,0.951 -0.918,1.962 -1.361,2.951 a 17.719,17.719 0 0 1 -5.915,7.7 10.357,10.357 0 0 1 -10.746,0.608 c -3.265,-1.913 -5.017,-6.282 -3.55,-9.77 z"
     class="cls-19" />
  <rect
     style="isolation:isolate;fill:#ffffff"
     ry="2.858"
     rx="2.858"
     height="92.263"
     width="76.607002"
     y="36.047001"
     x="125.891"
     class="cls-12"
     data-name="&lt;Rectangle&gt;"
     id="_Rectangle_" />
  <path
     style="isolation:isolate;fill:#008066"
     inkscape:connector-curvature="0"
     d="M 202.5,45.795 V 38.7 a 2.654,2.654 0 0 0 -2.654,-2.654 h -71.3 a 2.654,2.654 0 0 0 -2.654,2.654 v 7.093 H 202.5 Z"
     class="cls-9"
     data-name="&lt;Path&gt;"
     id="_Path_5" />
  <circle
     style="isolation:isolate;fill:#ffffff"
     r="0.83600003"
     cy="40.921001"
     cx="131.696"
     class="cls-12"
     data-name="&lt;Path&gt;"
     id="_Path_6" />
  <circle
     style="isolation:isolate;fill:#ffffff"
     r="0.83600003"
     cy="40.921001"
     cx="135.446"
     class="cls-12"
     data-name="&lt;Path&gt;"
     id="_Path_7" />
  <circle
     style="isolation:isolate;fill:#ffffff"
     r="0.83600003"
     cy="40.921001"
     cx="139.196"
     class="cls-12"
     data-name="&lt;Path&gt;"
     id="_Path_8" />
  <circle
     style="isolation:isolate;fill:#e0e3fd"
     id="circle177"
     r="6.8330002"
     cy="90.542"
     cx="141.13699"
     class="cls-3" />
  <circle
     style="isolation:isolate;fill:#e0e3fd"
     id="circle179"
     r="6.8330002"
     cy="109.192"
     cx="141.13699"
     class="cls-3" />
  <rect
     style="isolation:isolate;fill:#f0f1fe"
     id="rect181"
     height="1.4170001"
     width="38.012001"
     y="86.125"
     x="155.946"
     class="cls-20" />
  <rect
     style="isolation:isolate;fill:#f0f1fe"
     id="rect183"
     height="1.4170001"
     width="21"
     y="91.708"
     x="155.946"
     class="cls-20" />
  <rect
     style="isolation:isolate;fill:#f0f1fe"
     id="rect185"
     height="1.4170001"
     width="38.012001"
     y="104.958"
     x="155.946"
     class="cls-20" />
  <rect
     style="isolation:isolate;fill:#f0f1fe"
     id="rect187"
     height="1.4170001"
     width="21"
     y="110.542"
     x="155.946"
     class="cls-20" />
  <circle
     style="isolation:isolate;fill:#e0e3fd"
     id="circle189"
     r="6.8330002"
     cy="70.542"
     cx="141.13699"
     class="cls-3" />
  <rect
     style="isolation:isolate;fill:#f0f1fe"
     id="rect191"
     height="1.4170001"
     width="38.012001"
     y="66.125"
     x="155.946"
     class="cls-20" />
  <rect
     style="isolation:isolate;fill:#f0f1fe"
     id="rect193"
     height="1.4170001"
     width="21"
     y="71.708"
     x="155.946"
     class="cls-20" />
  <path
     class="cls-22"
     d="M 199.951,35.974 H 181.774 V 69.4 a 4.938,4.938 0 0 0 4.938,4.938 H 202.5 V 38.521 a 2.547,2.547 0 0 0 -2.549,-2.547 z"
     id="path195"
     inkscape:connector-curvature="0"
     style="opacity:0;isolation:isolate;mix-blend-mode:multiply;fill:#ffffff" />
  <path
     class="cls-23"
     d="m 199.969,35.974 h -18.054 v 33.337 a 4.9,4.9 0 0 0 4.9,4.9 H 202.5 V 38.5 a 2.529,2.529 0 0 0 -2.531,-2.526 z"
     id="path197"
     inkscape:connector-curvature="0"
     style="opacity:0.02399998;isolation:isolate;mix-blend-mode:multiply;fill:#fdfdff" />
  <path
     class="cls-24"
     d="m 199.986,35.974 h -17.931 v 33.252 a 4.871,4.871 0 0 0 4.871,4.871 H 202.5 V 38.486 a 2.512,2.512 0 0 0 -2.514,-2.512 z"
     id="path199"
     inkscape:connector-curvature="0"
     style="opacity:0.04899998;isolation:isolate;mix-blend-mode:multiply;fill:#fbfcff" />
  <path
     class="cls-25"
     d="m 200,35.974 h -17.8 v 33.167 a 4.838,4.838 0 0 0 4.838,4.838 H 202.5 V 38.469 A 2.5,2.5 0 0 0 200,35.974 Z"
     id="path201"
     inkscape:connector-curvature="0"
     style="opacity:0.07300002;isolation:isolate;mix-blend-mode:multiply;fill:#f9faff" />
  <path
     class="cls-26"
     d="m 200.02,35.974 h -17.684 v 33.082 a 4.8,4.8 0 0 0 4.8,4.8 H 202.5 V 38.452 a 2.478,2.478 0 0 0 -2.48,-2.478 z"
     id="path203"
     inkscape:connector-curvature="0"
     style="opacity:0.09800002;isolation:isolate;mix-blend-mode:multiply;fill:#f7f8ff" />
  <path
     class="cls-27"
     d="m 200.038,35.974 h -17.562 v 33 a 4.771,4.771 0 0 0 4.771,4.771 H 202.5 V 38.434 a 2.46,2.46 0 0 0 -2.462,-2.46 z"
     id="path205"
     inkscape:connector-curvature="0"
     style="opacity:0.122;isolation:isolate;mix-blend-mode:multiply;fill:#f6f6fe" />
  <path
     class="cls-28"
     d="m 200.055,35.974 h -17.438 v 32.913 a 4.737,4.737 0 0 0 4.737,4.737 H 202.5 V 38.417 a 2.443,2.443 0 0 0 -2.445,-2.443 z"
     id="path207"
     inkscape:connector-curvature="0"
     style="opacity:0.14599998;isolation:isolate;mix-blend-mode:multiply;fill:#f4f5fe" />
  <path
     class="cls-29"
     d="M 200.072,35.974 H 182.757 V 68.8 a 4.7,4.7 0 0 0 4.7,4.7 H 202.5 V 38.4 a 2.426,2.426 0 0 0 -2.428,-2.426 z"
     id="path209"
     inkscape:connector-curvature="0"
     style="opacity:0.17099998;isolation:isolate;mix-blend-mode:multiply;fill:#f2f3fe" />
  <path
     class="cls-30"
     d="M 200.089,35.974 H 182.9 v 32.744 a 4.67,4.67 0 0 0 4.67,4.67 H 202.5 V 38.383 a 2.409,2.409 0 0 0 -2.411,-2.409 z"
     id="path211"
     inkscape:connector-curvature="0"
     style="opacity:0.19500002;isolation:isolate;mix-blend-mode:multiply;fill:#f0f1fe" />
  <path
     class="cls-31"
     d="m 200.107,35.974 h -17.069 v 32.659 a 4.637,4.637 0 0 0 4.637,4.637 H 202.5 v -34.9 a 2.391,2.391 0 0 0 -2.393,-2.396 z"
     id="path213"
     inkscape:connector-curvature="0"
     style="opacity:0.22000002;isolation:isolate;mix-blend-mode:multiply;fill:#eeeffe" />
  <path
     class="cls-32"
     d="m 200.124,35.974 h -16.946 v 32.574 a 4.6,4.6 0 0 0 4.6,4.6 H 202.5 v -34.8 a 2.374,2.374 0 0 0 -2.376,-2.374 z"
     id="path215"
     inkscape:connector-curvature="0"
     style="opacity:0.244;isolation:isolate;mix-blend-mode:multiply;fill:#eceefe" />
  <path
     class="cls-33"
     d="m 200.141,35.974 h -16.822 v 32.489 a 4.57,4.57 0 0 0 4.57,4.57 H 202.5 v -34.7 a 2.357,2.357 0 0 0 -2.359,-2.359 z"
     id="path217"
     inkscape:connector-curvature="0"
     style="opacity:0.26800005;isolation:isolate;mix-blend-mode:multiply;fill:#eaecfe" />
  <path
     class="cls-34"
     d="m 200.158,35.974 h -16.7 v 32.4 A 4.536,4.536 0 0 0 188,72.915 h 14.5 v -34.6 a 2.34,2.34 0 0 0 -2.342,-2.341 z"
     id="path219"
     inkscape:connector-curvature="0"
     style="opacity:0.29300005;isolation:isolate;mix-blend-mode:multiply;fill:#e8eafe" />
  <path
     class="cls-47"
     d="m 200.383,35.974 h -15.1 v 31.3 a 4.1,4.1 0 0 0 4.1,4.1 H 202.5 V 38.089 a 2.115,2.115 0 0 0 -2.117,-2.115 z"
     id="path245"
     inkscape:connector-curvature="0"
     style="opacity:0;isolation:isolate;mix-blend-mode:multiply;fill:#d0d4fc" />
  <path
     class="cls-60"
     d="m 200.607,35.974 h -13.5 v 30.2 a 3.667,3.667 0 0 0 3.667,3.667 H 202.5 V 37.865 a 1.891,1.891 0 0 0 -1.893,-1.891 z"
     id="path271"
     inkscape:connector-curvature="0"
     style="opacity:0.92699998;isolation:isolate;mix-blend-mode:multiply;fill:#b8bdfa" />
  <path
     class="cls-61"
     d="M 200.624,35.974 H 187.25 v 30.117 a 3.633,3.633 0 0 0 3.633,3.633 H 202.5 V 37.848 a 1.874,1.874 0 0 0 -1.876,-1.874 z"
     id="path273"
     inkscape:connector-curvature="0"
     style="opacity:0.95099996;isolation:isolate;mix-blend-mode:multiply;fill:#b6bbfa" />
  <path
     class="cls-62"
     d="M 200.641,35.974 H 187.39 v 30.033 a 3.6,3.6 0 0 0 3.6,3.6 H 202.5 V 37.831 a 1.856,1.856 0 0 0 -1.859,-1.857 z"
     id="path275"
     inkscape:connector-curvature="0"
     style="opacity:0.97600002;isolation:isolate;mix-blend-mode:multiply;fill:#b4bafa" />
  <path
     class="cls-5"
     d="M 200.659,35.974 H 187.53 v 29.948 a 3.566,3.566 0 0 0 3.566,3.566 h 11.4 V 37.813 a 1.839,1.839 0 0 0 -1.837,-1.839 z"
     id="path277"
     inkscape:connector-curvature="0"
     style="isolation:isolate;mix-blend-mode:multiply;fill:#b2b8fa" />
  <rect
     style="isolation:isolate;fill:#ffffff"
     id="rect281"
     ry="5.1469998"
     rx="5.1469998"
     height="48.256001"
     width="55.299999"
     y="22.275"
     x="186.896"
     class="cls-12" />
  <path
     style="isolation:isolate;fill:#008066"
     inkscape:connector-curvature="0"
     id="path283"
     d="M 237.591,22.275 H 191.5 a 4.6,4.6 0 0 0 -4.6,4.6 v 5.243 h 55.3 V 26.88 a 4.6,4.6 0 0 0 -4.609,-4.605 z"
     class="cls-9" />
  <circle
     style="isolation:isolate;fill:#ffffff"
     id="circle285"
     r="0.84399998"
     cy="27.198999"
     cx="193.11501"
     class="cls-12" />
  <circle
     style="isolation:isolate;fill:#ffffff"
     id="circle287"
     r="0.84399998"
     cy="27.198999"
     cx="196.77901"
     class="cls-12" />
  <circle
     style="isolation:isolate;fill:#ffffff"
     id="circle289"
     r="0.84399998"
     cy="27.198999"
     cx="196.77901"
     class="cls-12" />
  <circle
     style="isolation:isolate;fill:#ffffff"
     id="circle291"
     r="0.84399998"
     cy="27.198999"
     cx="200.444"
     class="cls-12" />
  <circle
     style="isolation:isolate;fill:#d1d4fc"
     id="circle293"
     r="6.5960002"
     cy="45.032001"
     cx="197.623"
     class="cls-4" />
  <rect
     style="isolation:isolate;fill:#f0f1fe"
     id="rect295"
     height="1.777"
     width="30.204"
     y="41.479"
     x="207.772"
     class="cls-20" />
  <rect
     style="isolation:isolate;fill:#f0f1fe"
     id="rect297"
     height="1.777"
     width="30.204"
     y="46.652"
     x="207.772"
     class="cls-20" />
  <rect
     style="isolation:isolate;fill:#f0f1fe;fill-opacity:1"
     id="rect299"
     height="1.777"
     width="11.326"
     y="51.825001"
     x="207.772"
     class="cls-63" />
  <path
     style="isolation:isolate;fill:#aaccff;fill-opacity:0.61325967"
     inkscape:connector-curvature="0"
     id="path301"
     d="m 286.646,9.058 a 9.058,9.058 0 1 0 -14.01,7.579 v 5.78 h 9.9 v -5.78 a 9.045,9.045 0 0 0 4.11,-7.579 z"
     class="cls-19" />
  <polygon
     style="isolation:isolate;fill:#4d5068"
     points="283.182,22.821 279.888,25.575 274.986,25.575 271.993,22.821 271.993,18.494 283.182,18.494 "
     class="cls-13"
     data-name="&lt;Path&gt;"
     id="_Path_9" />
  <rect
     style="isolation:isolate;fill:#717386"
     ry="0.36500001"
     rx="0.36500001"
     height="0.82999998"
     width="12.137"
     y="18.889"
     x="271.50699"
     class="cls-64"
     data-name="&lt;Rectangle&gt;"
     id="_Rectangle_2" />
  <rect
     style="isolation:isolate;fill:#717386"
     ry="0.36500001"
     rx="0.36500001"
     height="0.82999998"
     width="12.137"
     y="20.275"
     x="271.50699"
     class="cls-64"
     data-name="&lt;Rectangle&gt;"
     id="_Rectangle_3" />
  <rect
     style="isolation:isolate;fill:#717386"
     ry="0.36500001"
     rx="0.36500001"
     height="0.82999998"
     width="12.137"
     y="21.662001"
     x="271.50699"
     class="cls-64"
     data-name="&lt;Rectangle&gt;"
     id="_Rectangle_4" />
  <path
     style="isolation:isolate;fill:#3a3c4e"
     inkscape:connector-curvature="0"
     d="m 274.845,25.446 h 5.082 v 0.2 a 1.43,1.43 0 0 1 -1.43,1.43 h -2.222 a 1.43,1.43 0 0 1 -1.43,-1.43 z"
     class="cls-65"
     data-name="&lt;Rectangle&gt;"
     id="_Rectangle_5" />
  <polygon
     style="isolation:isolate;fill:#ffffff"
     id="polygon308"
     points="277.022,11.422 274.702,9.103 275.409,8.396 277.022,10.008 280.55,6.48 281.257,7.186 "
     class="cls-12" />
  <path
     style="opacity:0;isolation:isolate;fill:#ffffff"
     inkscape:connector-curvature="0"
     id="path310"
     d="M 152.4,54.256 H 125.891 V 84.768 H 152.4 a 3.55,3.55 0 0 0 3.55,-3.55 V 57.806 a 3.55,3.55 0 0 0 -3.55,-3.55 z"
     class="cls-22" />
  <path
     style="opacity:0.02399998;isolation:isolate;fill:#fdfdff"
     inkscape:connector-curvature="0"
     id="path312"
     d="m 152.258,54.256 h -26.367 v 30.352 h 26.367 a 3.531,3.531 0 0 0 3.531,-3.531 v -23.29 a 3.531,3.531 0 0 0 -3.531,-3.531 z"
     class="cls-23" />
  <path
     style="opacity:0.04899998;isolation:isolate;fill:#fbfcff"
     inkscape:connector-curvature="0"
     id="path314"
     d="m 152.119,54.256 h -26.228 v 30.193 h 26.228 a 3.513,3.513 0 0 0 3.513,-3.513 V 57.769 a 3.513,3.513 0 0 0 -3.513,-3.513 z"
     class="cls-24" />
  <path
     style="opacity:0.07300002;isolation:isolate;fill:#f9faff"
     inkscape:connector-curvature="0"
     id="path316"
     d="m 151.981,54.256 h -26.09 V 84.29 h 26.09 a 3.494,3.494 0 0 0 3.494,-3.494 V 57.75 a 3.494,3.494 0 0 0 -3.494,-3.494 z"
     class="cls-25" />
  <path
     style="opacity:0.09800002;isolation:isolate;fill:#f7f8ff"
     inkscape:connector-curvature="0"
     id="path318"
     d="M 151.842,54.256 H 125.891 V 84.13 h 25.951 a 3.476,3.476 0 0 0 3.476,-3.476 V 57.732 a 3.476,3.476 0 0 0 -3.476,-3.476 z"
     class="cls-26" />
  <path
     style="opacity:0.122;isolation:isolate;fill:#f6f6fe"
     inkscape:connector-curvature="0"
     id="path320"
     d="M 151.7,54.256 H 125.891 V 83.971 H 151.7 a 3.457,3.457 0 0 0 3.457,-3.457 v -22.8 A 3.457,3.457 0 0 0 151.7,54.256 Z"
     class="cls-27" />
  <path
     style="opacity:0.14599998;isolation:isolate;fill:#f4f5fe"
     inkscape:connector-curvature="0"
     id="path322"
     d="m 151.565,54.256 h -25.674 v 29.556 h 25.674 A 3.438,3.438 0 0 0 155,80.373 V 57.695 a 3.438,3.438 0 0 0 -3.435,-3.439 z"
     class="cls-28" />
  <path
     style="opacity:0.17099998;isolation:isolate;fill:#f2f3fe"
     inkscape:connector-curvature="0"
     id="path324"
     d="m 151.427,54.256 h -25.536 v 29.4 h 25.536 a 3.42,3.42 0 0 0 3.42,-3.42 v -22.56 a 3.42,3.42 0 0 0 -3.42,-3.42 z"
     class="cls-29" />
  <path
     style="opacity:0.19500002;isolation:isolate;fill:#f0f1fe"
     inkscape:connector-curvature="0"
     id="path326"
     d="m 151.288,54.256 h -25.4 v 29.237 h 25.4 a 3.4,3.4 0 0 0 3.4,-3.4 V 57.657 a 3.4,3.4 0 0 0 -3.4,-3.401 z"
     class="cls-30" />
  <path
     style="opacity:0.22000002;isolation:isolate;fill:#eeeffe"
     inkscape:connector-curvature="0"
     id="path328"
     d="m 151.15,54.256 h -25.259 v 29.077 h 25.259 a 3.383,3.383 0 0 0 3.383,-3.383 V 57.639 a 3.383,3.383 0 0 0 -3.383,-3.383 z"
     class="cls-31" />
  <path
     style="opacity:0.244;isolation:isolate;fill:#eceefe"
     inkscape:connector-curvature="0"
     id="path330"
     d="m 151.012,54.256 h -25.121 v 28.918 h 25.121 a 3.364,3.364 0 0 0 3.364,-3.364 V 57.62 a 3.364,3.364 0 0 0 -3.364,-3.364 z"
     class="cls-32" />
  <path
     style="opacity:0.26800005;isolation:isolate;fill:#eaecfe"
     inkscape:connector-curvature="0"
     id="path332"
     d="m 150.873,54.256 h -24.982 v 28.759 h 24.982 a 3.346,3.346 0 0 0 3.346,-3.346 V 57.6 a 3.346,3.346 0 0 0 -3.346,-3.344 z"
     class="cls-33" />
  <path
     style="opacity:0.29300005;isolation:isolate;fill:#e8eafe"
     inkscape:connector-curvature="0"
     id="path334"
     d="m 150.735,54.256 h -24.844 v 28.6 h 24.844 a 3.327,3.327 0 0 0 3.327,-3.327 V 57.583 a 3.327,3.327 0 0 0 -3.327,-3.327 z"
     class="cls-34" />
  <path
     style="opacity:0.31700003;isolation:isolate;fill:#e7e8fd"
     inkscape:connector-curvature="0"
     id="path336"
     d="M 150.6,54.256 H 125.891 V 82.7 H 150.6 a 3.309,3.309 0 0 0 3.309,-3.309 V 57.565 A 3.309,3.309 0 0 0 150.6,54.256 Z"
     class="cls-35" />
  <path
     style="opacity:0.34100001;isolation:isolate;fill:#e5e7fd"
     inkscape:connector-curvature="0"
     id="path338"
     d="m 150.458,54.256 h -24.567 v 28.28 h 24.567 a 3.29,3.29 0 0 0 3.29,-3.29 v -21.7 a 3.29,3.29 0 0 0 -3.29,-3.29 z"
     class="cls-36" />
  <path
     style="opacity:0.36600001;isolation:isolate;fill:#e3e5fd"
     inkscape:connector-curvature="0"
     id="path340"
     d="m 150.319,54.256 h -24.428 v 28.121 h 24.428 a 3.272,3.272 0 0 0 3.272,-3.272 V 57.528 a 3.272,3.272 0 0 0 -3.272,-3.272 z"
     class="cls-37" />
  <path
     style="opacity:0.38999999;isolation:isolate;fill:#e1e3fd"
     inkscape:connector-curvature="0"
     id="path342"
     d="m 150.181,54.256 h -24.29 v 27.962 h 24.29 a 3.253,3.253 0 0 0 3.253,-3.253 V 57.509 a 3.253,3.253 0 0 0 -3.253,-3.253 z"
     class="cls-38" />
  <path
     style="opacity:0.41499999;isolation:isolate;fill:#dfe2fd"
     inkscape:connector-curvature="0"
     id="path344"
     d="m 150.042,54.256 h -24.151 v 27.8 h 24.151 a 3.235,3.235 0 0 0 3.234,-3.235 v -21.33 a 3.235,3.235 0 0 0 -3.234,-3.235 z"
     class="cls-39" />
  <path
     style="opacity:0.43900003;isolation:isolate;fill:#dde0fd"
     inkscape:connector-curvature="0"
     id="path346"
     d="M 149.9,54.256 H 125.891 V 81.9 H 149.9 a 3.216,3.216 0 0 0 3.216,-3.216 V 57.472 A 3.216,3.216 0 0 0 149.9,54.256 Z"
     class="cls-40" />
  <path
     style="opacity:0.46300001;isolation:isolate;fill:#dbdefd"
     inkscape:connector-curvature="0"
     id="path348"
     d="M 149.765,54.256 H 125.891 V 81.74 h 23.875 a 3.2,3.2 0 0 0 3.2,-3.2 V 57.453 a 3.2,3.2 0 0 0 -3.201,-3.197 z"
     class="cls-41" />
  <path
     style="opacity:0.48800001;isolation:isolate;fill:#d9dcfd"
     inkscape:connector-curvature="0"
     id="path350"
     d="M 149.627,54.256 H 125.891 V 81.58 h 23.736 a 3.179,3.179 0 0 0 3.179,-3.179 V 57.435 a 3.179,3.179 0 0 0 -3.179,-3.179 z"
     class="cls-42" />
  <path
     style="opacity:0.51200005;isolation:isolate;fill:#d8dbfc"
     inkscape:connector-curvature="0"
     id="path352"
     d="m 149.488,54.256 h -23.6 v 27.165 h 23.6 a 3.16,3.16 0 0 0 3.16,-3.16 V 57.416 a 3.16,3.16 0 0 0 -3.16,-3.16 z"
     class="cls-43" />
  <path
     style="opacity:0.53699999;isolation:isolate;fill:#d6d9fc"
     inkscape:connector-curvature="0"
     id="path354"
     d="m 149.35,54.256 h -23.459 v 27.005 h 23.459 a 3.142,3.142 0 0 0 3.142,-3.142 V 57.4 a 3.142,3.142 0 0 0 -3.142,-3.144 z"
     class="cls-44" />
  <path
     style="opacity:0.56099997;isolation:isolate;fill:#d4d7fc"
     inkscape:connector-curvature="0"
     id="path356"
     d="M 149.212,54.256 H 125.891 V 81.1 h 23.321 a 3.123,3.123 0 0 0 3.123,-3.123 v -20.6 a 3.123,3.123 0 0 0 -3.123,-3.121 z"
     class="cls-45" />
  <path
     style="opacity:0.58499995;isolation:isolate;fill:#d2d5fc"
     inkscape:connector-curvature="0"
     id="path358"
     d="m 149.073,54.256 h -23.182 v 26.687 h 23.182 a 3.1,3.1 0 0 0 3.1,-3.1 V 57.361 a 3.1,3.1 0 0 0 -3.1,-3.105 z"
     class="cls-46" />
  <path
     style="opacity:0.61000001;isolation:isolate;fill:#d0d4fc"
     inkscape:connector-curvature="0"
     id="path360"
     d="m 148.935,54.256 h -23.044 v 26.527 h 23.044 a 3.086,3.086 0 0 0 3.086,-3.086 V 57.342 a 3.086,3.086 0 0 0 -3.086,-3.086 z"
     class="cls-47" />
  <path
     style="opacity:0.63399999;isolation:isolate;fill:#ced2fc"
     inkscape:connector-curvature="0"
     id="path362"
     d="M 148.8,54.256 H 125.891 V 80.624 H 148.8 a 3.068,3.068 0 0 0 3.068,-3.068 V 57.324 A 3.068,3.068 0 0 0 148.8,54.256 Z"
     class="cls-48" />
  <path
     style="opacity:0.65899999;isolation:isolate;fill:#ccd0fc"
     inkscape:connector-curvature="0"
     id="path364"
     d="m 148.658,54.256 h -22.767 v 26.208 h 22.767 a 3.049,3.049 0 0 0 3.049,-3.049 v -20.11 a 3.049,3.049 0 0 0 -3.049,-3.049 z"
     class="cls-49" />
  <path
     style="opacity:0.68300003;isolation:isolate;fill:#cacffc"
     inkscape:connector-curvature="0"
     id="path366"
     d="m 148.519,54.256 h -22.628 v 26.049 h 22.628 a 3.031,3.031 0 0 0 3.031,-3.031 V 57.287 a 3.031,3.031 0 0 0 -3.031,-3.031 z"
     class="cls-50" />
  <path
     style="opacity:0.70700001;isolation:isolate;fill:#c9cdfb"
     inkscape:connector-curvature="0"
     id="path368"
     d="m 148.381,54.256 h -22.49 v 25.89 h 22.49 a 3.012,3.012 0 0 0 3.012,-3.012 V 57.268 a 3.012,3.012 0 0 0 -3.012,-3.012 z"
     class="cls-51" />
  <path
     style="opacity:0.73200001;isolation:isolate;fill:#c7cbfb"
     inkscape:connector-curvature="0"
     id="path370"
     d="m 148.242,54.256 h -22.351 v 25.73 h 22.351 a 2.994,2.994 0 0 0 2.994,-2.993 V 57.249 a 2.994,2.994 0 0 0 -2.994,-2.993 z"
     class="cls-52" />
  <path
     style="opacity:0.756;isolation:isolate;fill:#c5c9fb"
     inkscape:connector-curvature="0"
     id="path372"
     d="M 148.1,54.256 H 125.891 V 79.827 H 148.1 a 2.975,2.975 0 0 0 2.975,-2.975 V 57.231 A 2.975,2.975 0 0 0 148.1,54.256 Z"
     class="cls-53" />
  <path
     style="opacity:0.77999998;isolation:isolate;fill:#c3c8fb"
     inkscape:connector-curvature="0"
     id="path374"
     d="m 147.965,54.256 h -22.074 v 25.412 h 22.075 a 2.957,2.957 0 0 0 2.956,-2.957 v -19.5 a 2.956,2.956 0 0 0 -2.957,-2.955 z"
     class="cls-54" />
  <path
     style="opacity:0.80500034;isolation:isolate;fill:#c1c6fb"
     inkscape:connector-curvature="0"
     id="path376"
     d="m 147.827,54.256 h -21.936 v 25.252 h 21.936 a 2.938,2.938 0 0 0 2.938,-2.938 V 57.194 a 2.938,2.938 0 0 0 -2.938,-2.938 z"
     class="cls-55" />
  <path
     style="opacity:0.82900002;isolation:isolate;fill:#bfc4fb"
     inkscape:connector-curvature="0"
     id="path378"
     d="m 147.689,54.256 h -21.8 v 25.093 h 21.8 a 2.919,2.919 0 0 0 2.919,-2.919 V 57.175 a 2.919,2.919 0 0 0 -2.919,-2.919 z"
     class="cls-56" />
  <path
     style="opacity:0.85399996;isolation:isolate;fill:#bdc2fb"
     inkscape:connector-curvature="0"
     id="path380"
     d="m 147.55,54.256 h -21.659 v 24.933 h 21.659 a 2.9,2.9 0 0 0 2.9,-2.9 V 57.157 a 2.9,2.9 0 0 0 -2.9,-2.901 z"
     class="cls-57" />
  <path
     style="opacity:0.878;isolation:isolate;fill:#bbc1fb"
     inkscape:connector-curvature="0"
     id="path382"
     d="M 147.412,54.256 H 125.891 V 79.03 h 21.521 a 2.882,2.882 0 0 0 2.882,-2.882 v -19.01 a 2.882,2.882 0 0 0 -2.882,-2.882 z"
     class="cls-58" />
  <path
     style="opacity:0.90200034;isolation:isolate;fill:#babffa"
     inkscape:connector-curvature="0"
     id="path384"
     d="m 147.273,54.256 h -21.382 v 24.615 h 21.382 a 2.864,2.864 0 0 0 2.864,-2.864 V 57.12 a 2.864,2.864 0 0 0 -2.864,-2.864 z"
     class="cls-59" />
  <path
     style="opacity:0.92699998;isolation:isolate;fill:#b8bdfa"
     inkscape:connector-curvature="0"
     id="path386"
     d="m 147.135,54.256 h -21.244 v 24.455 h 21.244 a 2.845,2.845 0 0 0 2.845,-2.845 V 57.1 a 2.845,2.845 0 0 0 -2.845,-2.844 z"
     class="cls-60" />
  <path
     style="opacity:0.95099996;isolation:isolate;fill:#b6bbfa"
     inkscape:connector-curvature="0"
     id="path388"
     d="m 147,54.256 h -21.109 v 24.3 H 147 a 2.827,2.827 0 0 0 2.827,-2.827 V 57.083 A 2.827,2.827 0 0 0 147,54.256 Z"
     class="cls-61" />
  <path
     style="opacity:0.97600002;isolation:isolate;fill:#b4bafa"
     inkscape:connector-curvature="0"
     id="path390"
     d="m 146.858,54.256 h -20.967 v 24.136 h 20.967 a 2.808,2.808 0 0 0 2.808,-2.808 v -18.52 a 2.808,2.808 0 0 0 -2.808,-2.808 z"
     class="cls-62" />
  <path
     style="isolation:isolate;fill:#b2b8fa"
     inkscape:connector-curvature="0"
     id="path392"
     d="m 146.719,54.256 h -20.828 v 23.977 h 20.828 a 2.79,2.79 0 0 0 2.79,-2.79 v -18.4 a 2.79,2.79 0 0 0 -2.79,-2.787 z"
     class="cls-5" />
  <rect
     style="isolation:isolate;fill:#ffffff"
     id="rect394"
     ry="3.4630001"
     rx="3.4630001"
     height="29.763"
     width="50.634998"
     y="49.764"
     x="100.573"
     class="cls-12" />
  <circle
     style="isolation:isolate;fill:#008066;fill-opacity:1"
     r="8.1940002"
     cy="64.644997"
     cx="113.674"
     class="cls-9"
     data-name="&lt;Path&gt;"
     id="_Path_10" />
  <path
     style="isolation:isolate;fill:#ffffff"
     inkscape:connector-curvature="0"
     d="m 116.7,65.108 -5.273,3.044 a 0.534,0.534 0 0 1 -0.8,-0.462 V 61.6 a 0.534,0.534 0 0 1 0.8,-0.462 l 5.273,3.044 a 0.534,0.534 0 0 1 0,0.926 z"
     class="cls-12"
     data-name="&lt;Path&gt;"
     id="_Path_11" />
  <rect
     style="isolation:isolate;fill:#f0f1fe"
     id="rect398"
     height="2"
     width="22.464001"
     y="58.066002"
     x="124.866"
     class="cls-20" />
  <rect
     style="isolation:isolate;fill:#f0f1fe"
     id="rect400"
     height="2"
     width="22.464001"
     y="63.645"
     x="124.866"
     class="cls-20" />
  <rect
     style="isolation:isolate;fill:#f0f1fe;fill-opacity:1"
     id="rect402"
     height="2"
     width="11.232"
     y="69.223999"
     x="124.866"
     class="cls-11" />
  <path
     class="cls-12"
     d="m 202.5,83.625 h -17.864 a 2.188,2.188 0 0 0 -2.188,2.188 v 20.966 a 2.188,2.188 0 0 0 2.188,2.188 H 202.5 Z"
     id="path404"
     inkscape:connector-curvature="0"
     style="isolation:isolate;fill:#ffffff" />
  <path
     class="cls-68"
     d="m 202.5,83.625 h -17.745 a 2.173,2.173 0 0 0 -2.173,2.173 v 20.826 a 2.173,2.173 0 0 0 2.173,2.173 H 202.5 Z"
     id="path408"
     inkscape:connector-curvature="0"
     style="isolation:isolate;fill:#fdfdff" />
  <path
     class="cls-70"
     d="m 202.5,83.625 h -17.626 a 2.159,2.159 0 0 0 -2.159,2.159 v 20.686 a 2.158,2.158 0 0 0 2.159,2.159 H 202.5 v -25 z"
     id="path412"
     inkscape:connector-curvature="0"
     style="isolation:isolate;fill:#fbfcff" />
  <path
     class="cls-72"
     d="M 202.5,83.625 H 185 a 2.144,2.144 0 0 0 -2.144,2.144 v 20.546 a 2.144,2.144 0 0 0 2.144,2.144 h 17.5 z"
     id="path416"
     inkscape:connector-curvature="0"
     style="isolation:isolate;fill:#f9faff" />
  <path
     class="cls-74"
     d="m 202.5,83.625 h -17.387 a 2.129,2.129 0 0 0 -2.13,2.129 v 20.407 a 2.129,2.129 0 0 0 2.13,2.129 H 202.5 Z"
     id="path420"
     inkscape:connector-curvature="0"
     style="isolation:isolate;fill:#f7f8ff" />
  <path
     class="cls-76"
     d="m 202.5,83.625 h -17.268 a 2.115,2.115 0 0 0 -2.115,2.115 v 20.267 a 2.115,2.115 0 0 0 2.115,2.115 H 202.5 v -24.5 z"
     id="path424"
     inkscape:connector-curvature="0"
     style="isolation:isolate;fill:#f6f6fe" />
  <path
     class="cls-78"
     d="m 202.5,83.625 h -17.149 a 2.1,2.1 0 0 0 -2.1,2.1 v 20.127 a 2.1,2.1 0 0 0 2.1,2.1 H 202.5 Z"
     id="path428"
     inkscape:connector-curvature="0"
     style="isolation:isolate;fill:#f4f5fe" />
  <path
     class="cls-80"
     d="m 202.5,83.625 h -17.03 a 2.086,2.086 0 0 0 -2.086,2.086 V 105.7 a 2.086,2.086 0 0 0 2.086,2.086 h 17.03 z"
     id="path432"
     inkscape:connector-curvature="0"
     style="isolation:isolate;fill:#f2f3fe" />
  <path
     class="cls-20"
     d="m 202.5,83.625 h -16.911 a 2.071,2.071 0 0 0 -2.071,2.071 v 19.847 a 2.071,2.071 0 0 0 2.071,2.071 H 202.5 Z"
     id="path436"
     inkscape:connector-curvature="0"
     style="isolation:isolate;fill:#f0f1fe" />
  <path
     class="cls-83"
     d="m 202.5,83.625 h -16.792 a 2.057,2.057 0 0 0 -2.056,2.057 v 19.707 a 2.056,2.056 0 0 0 2.056,2.056 H 202.5 Z"
     id="path440"
     inkscape:connector-curvature="0"
     style="isolation:isolate;fill:#eeeffe" />
  <path
     class="cls-85"
     d="m 202.5,83.625 h -16.67 a 2.042,2.042 0 0 0 -2.042,2.042 v 19.567 a 2.042,2.042 0 0 0 2.042,2.042 h 16.67 z"
     id="path444"
     inkscape:connector-curvature="0"
     style="isolation:isolate;fill:#eceefe" />
  <path
     class="cls-87"
     d="m 202.5,83.625 h -16.553 a 2.027,2.027 0 0 0 -2.027,2.027 v 19.428 a 2.027,2.027 0 0 0 2.027,2.027 H 202.5 Z"
     id="path448"
     inkscape:connector-curvature="0"
     style="isolation:isolate;fill:#eaecfe" />
  <path
     class="cls-89"
     d="m 202.5,83.625 h -16.434 a 2.013,2.013 0 0 0 -2.013,2.013 v 19.288 a 2.013,2.013 0 0 0 2.013,2.013 H 202.5 Z"
     id="path452"
     inkscape:connector-curvature="0"
     style="isolation:isolate;fill:#e8eafe" />
  <path
     class="cls-91"
     d="m 202.5,83.625 h -16.315 a 2,2 0 0 0 -2,2 v 19.148 a 2,2 0 0 0 2,2 H 202.5 Z"
     id="path456"
     inkscape:connector-curvature="0"
     style="isolation:isolate;fill:#e7e8fd" />
  <path
     class="cls-93"
     d="m 202.5,83.625 h -16.2 a 1.984,1.984 0 0 0 -1.984,1.984 v 19.008 a 1.983,1.983 0 0 0 1.984,1.983 h 16.2 z"
     id="path460"
     inkscape:connector-curvature="0"
     style="isolation:isolate;fill:#e5e7fd" />
  <path
     class="cls-95"
     d="m 202.5,83.625 h -16.077 a 1.969,1.969 0 0 0 -1.969,1.969 v 18.868 a 1.969,1.969 0 0 0 1.969,1.969 H 202.5 Z"
     id="path464"
     inkscape:connector-curvature="0"
     style="isolation:isolate;fill:#e3e5fd" />
  <path
     class="cls-97"
     d="m 202.5,83.625 h -15.957 a 1.954,1.954 0 0 0 -1.954,1.954 v 18.728 a 1.954,1.954 0 0 0 1.954,1.954 H 202.5 Z"
     id="path468"
     inkscape:connector-curvature="0"
     style="isolation:isolate;fill:#e1e3fd" />
  <path
     class="cls-99"
     d="m 202.5,83.625 h -15.838 a 1.94,1.94 0 0 0 -1.94,1.94 v 18.588 a 1.94,1.94 0 0 0 1.94,1.94 H 202.5 Z"
     id="path472"
     inkscape:connector-curvature="0"
     style="isolation:isolate;fill:#dfe2fd" />
  <path
     class="cls-101"
     d="m 202.5,83.625 h -15.719 a 1.925,1.925 0 0 0 -1.925,1.925 V 104 a 1.925,1.925 0 0 0 1.925,1.925 H 202.5 Z"
     id="path476"
     inkscape:connector-curvature="0"
     style="isolation:isolate;fill:#dde0fd" />
  <path
     class="cls-103"
     d="m 202.5,83.625 h -15.6 a 1.911,1.911 0 0 0 -1.911,1.91 v 18.308 a 1.91,1.91 0 0 0 1.911,1.91 h 15.6 z"
     id="path480"
     inkscape:connector-curvature="0"
     style="isolation:isolate;fill:#dbdefd" />
  <path
     class="cls-105"
     d="m 202.5,83.625 h -15.481 a 1.9,1.9 0 0 0 -1.9,1.9 v 18.168 a 1.9,1.9 0 0 0 1.9,1.9 H 202.5 Z"
     id="path484"
     inkscape:connector-curvature="0"
     style="isolation:isolate;fill:#d9dcfd" />
  <path
     class="cls-107"
     d="m 202.5,83.625 h -15.362 a 1.881,1.881 0 0 0 -1.881,1.881 v 18.029 a 1.881,1.881 0 0 0 1.881,1.881 H 202.5 Z"
     id="path488"
     inkscape:connector-curvature="0"
     style="isolation:isolate;fill:#d8dbfc" />
  <path
     class="cls-109"
     d="m 202.5,83.625 h -15.24 a 1.867,1.867 0 0 0 -1.867,1.867 v 17.888 a 1.867,1.867 0 0 0 1.867,1.867 h 15.24 z"
     id="path492"
     inkscape:connector-curvature="0"
     style="isolation:isolate;fill:#d6d9fc" />
  <path
     class="cls-111"
     d="m 202.5,83.625 h -15.123 a 1.852,1.852 0 0 0 -1.852,1.852 v 17.749 a 1.852,1.852 0 0 0 1.852,1.852 H 202.5 Z"
     id="path496"
     inkscape:connector-curvature="0"
     style="isolation:isolate;fill:#d4d7fc" />
  <path
     class="cls-113"
     d="m 202.5,83.625 h -15 a 1.838,1.838 0 0 0 -1.838,1.838 v 17.609 a 1.837,1.837 0 0 0 1.838,1.838 h 15 z"
     id="path500"
     inkscape:connector-curvature="0"
     style="isolation:isolate;fill:#d2d5fc" />
  <path
     class="cls-115"
     d="m 202.5,83.625 h -14.885 a 1.823,1.823 0 0 0 -1.823,1.823 v 17.469 a 1.823,1.823 0 0 0 1.823,1.823 H 202.5 Z"
     id="path504"
     inkscape:connector-curvature="0"
     style="isolation:isolate;fill:#d0d4fc" />
  <path
     class="cls-117"
     d="m 202.5,83.625 h -14.766 a 1.808,1.808 0 0 0 -1.808,1.808 v 17.329 a 1.808,1.808 0 0 0 1.808,1.808 H 202.5 Z"
     id="path508"
     inkscape:connector-curvature="0"
     style="isolation:isolate;fill:#ced2fc" />
  <path
     class="cls-119"
     d="m 202.5,83.625 h -14.647 a 1.794,1.794 0 0 0 -1.794,1.794 v 17.189 a 1.794,1.794 0 0 0 1.794,1.794 H 202.5 Z"
     id="path512"
     inkscape:connector-curvature="0"
     style="isolation:isolate;fill:#ccd0fc" />
  <path
     class="cls-121"
     d="m 202.5,83.625 h -14.527 a 1.779,1.779 0 0 0 -1.779,1.779 v 17.049 a 1.779,1.779 0 0 0 1.779,1.779 H 202.5 Z"
     id="path516"
     inkscape:connector-curvature="0"
     style="isolation:isolate;fill:#cacffc" />
  <path
     class="cls-123"
     d="m 202.5,83.625 h -14.408 a 1.765,1.765 0 0 0 -1.765,1.765 v 16.91 a 1.765,1.765 0 0 0 1.765,1.764 H 202.5 Z"
     id="path520"
     inkscape:connector-curvature="0"
     style="isolation:isolate;fill:#c9cdfb" />
  <path
     class="cls-125"
     d="m 202.5,83.625 h -14.289 a 1.75,1.75 0 0 0 -1.75,1.75 v 16.77 a 1.75,1.75 0 0 0 1.75,1.75 H 202.5 Z"
     id="path524"
     inkscape:connector-curvature="0"
     style="isolation:isolate;fill:#c7cbfb" />
  <path
     class="cls-127"
     d="m 202.5,83.625 h -14.17 a 1.735,1.735 0 0 0 -1.735,1.735 v 16.63 a 1.735,1.735 0 0 0 1.735,1.735 h 14.17 z"
     id="path528"
     inkscape:connector-curvature="0"
     style="isolation:isolate;fill:#c5c9fb" />
  <path
     class="cls-129"
     d="m 202.5,83.625 h -14.051 a 1.721,1.721 0 0 0 -1.721,1.721 v 16.49 a 1.721,1.721 0 0 0 1.721,1.721 H 202.5 Z"
     id="path532"
     inkscape:connector-curvature="0"
     style="isolation:isolate;fill:#c3c8fb" />
  <path
     class="cls-7"
     d="m 202.5,83.625 h -13.931 a 1.706,1.706 0 0 0 -1.706,1.706 v 16.35 a 1.706,1.706 0 0 0 1.706,1.706 H 202.5 Z"
     id="path536"
     inkscape:connector-curvature="0"
     style="isolation:isolate;fill:#c1c6fb" />
  <path
     class="cls-132"
     d="M 202.5,83.625 H 188.69 A 1.692,1.692 0 0 0 187,85.317 v 16.21 a 1.691,1.691 0 0 0 1.691,1.692 H 202.5 Z"
     id="path540"
     inkscape:connector-curvature="0"
     style="isolation:isolate;fill:#bfc4fb" />
  <path
     class="cls-134"
     d="M 202.5,83.625 H 188.807 A 1.677,1.677 0 0 0 187.13,85.3 v 16.07 a 1.677,1.677 0 0 0 1.677,1.677 H 202.5 Z"
     id="path544"
     inkscape:connector-curvature="0"
     style="isolation:isolate;fill:#bdc2fb" />
  <path
     class="cls-136"
     d="m 202.5,83.625 h -13.574 a 1.662,1.662 0 0 0 -1.662,1.662 v 15.93 a 1.662,1.662 0 0 0 1.662,1.662 H 202.5 Z"
     id="path548"
     inkscape:connector-curvature="0"
     style="isolation:isolate;fill:#bbc1fb" />
  <path
     class="cls-138"
     d="m 202.5,83.625 h -13.455 a 1.648,1.648 0 0 0 -1.648,1.648 v 15.79 a 1.648,1.648 0 0 0 1.648,1.648 H 202.5 Z"
     id="path552"
     inkscape:connector-curvature="0"
     style="isolation:isolate;fill:#babffa" />
  <path
     class="cls-140"
     d="m 202.5,83.625 h -13.336 a 1.633,1.633 0 0 0 -1.633,1.633 v 15.65 a 1.633,1.633 0 0 0 1.633,1.633 H 202.5 Z"
     id="path556"
     inkscape:connector-curvature="0"
     style="isolation:isolate;fill:#b8bdfa" />
  <path
     class="cls-142"
     d="m 202.5,83.625 h -13.216 a 1.619,1.619 0 0 0 -1.619,1.619 v 15.511 a 1.619,1.619 0 0 0 1.619,1.618 H 202.5 Z"
     id="path560"
     inkscape:connector-curvature="0"
     style="isolation:isolate;fill:#b6bbfa" />
  <path
     class="cls-144"
     d="m 202.5,83.625 h -13.1 a 1.6,1.6 0 0 0 -1.6,1.6 V 100.6 a 1.6,1.6 0 0 0 1.6,1.6 h 13.1 z"
     id="path564"
     inkscape:connector-curvature="0"
     style="isolation:isolate;fill:#b4bafa" />
  <path
     style="isolation:isolate;fill:#b2b8fa"
     inkscape:connector-curvature="0"
     id="path568"
     d="m 202.5,83.625 h -12.978 a 1.589,1.589 0 0 0 -1.589,1.589 v 15.231 a 1.589,1.589 0 0 0 1.589,1.589 H 202.5 Z"
     class="cls-5" />
  <rect
     style="isolation:isolate;fill:#ffffff"
     id="rect570"
     ry="2.0109999"
     rx="2.0109999"
     height="23.292"
     width="33.507"
     y="80.061996"
     x="186.896"
     class="cls-12" />
  <rect
     style="isolation:isolate;fill:#e0e3fd"
     id="rect572"
     height="17.778999"
     width="28.51"
     y="82.300003"
     x="189.395"
     class="cls-3" />
  <polygon
     style="isolation:isolate;fill:#d1d4fc;fill-opacity:1"
     id="polygon574"
     points="189.395,100.079 200.686,100.079 193.803,88.84 189.417,95.173 "
     class="cls-5" />
  <polygon
     style="isolation:isolate;fill:#ffffff"
     id="polygon576"
     points="192.884,92.101 193.649,93.364 194.497,92.139 194.891,92.791 195.586,91.787 193.803,88.84 191.781,91.759 192.406,92.791 "
     class="cls-12" />
  <polygon
     style="isolation:isolate;fill:#d1d4fc;fill-opacity:1"
     id="polygon578"
     points="207.083,100.079 200.674,100.079 199.155,97.635 202.491,92.664 "
     class="cls-5" />
  <circle
     style="isolation:isolate;fill:#d1d4fc"
     id="circle580"
     r="3.1300001"
     cy="88.355003"
     cx="209.48599"
     class="cls-4" />
  <polygon
     style="isolation:isolate;fill:#ffffff"
     id="polygon582"
     points="201.612,95.924 202.377,97.188 203.225,95.963 203.62,96.615 204.315,95.611 202.491,92.664 200.51,95.582 201.134,96.615 "
     class="cls-12" />
  <rect
     style="isolation:isolate;fill:#ffffff"
     id="rect584"
     ry="3.684"
     rx="3.684"
     height="36.584"
     width="41.923"
     y="107.534"
     x="79.679001"
     class="cls-12" />
  <path
     style="isolation:isolate;fill:#008066"
     inkscape:connector-curvature="0"
     id="path586"
     d="M 118.111,107.534 H 83.17 a 3.491,3.491 0 0 0 -3.491,3.491 V 115 H 121.6 v -3.975 a 3.491,3.491 0 0 0 -3.489,-3.491 z"
     class="cls-9" />
  <circle
     style="isolation:isolate;fill:#ffffff"
     id="circle588"
     r="0.639"
     cy="111.267"
     cx="84.392998"
     class="cls-12" />
  <circle
     style="isolation:isolate;fill:#ffffff"
     id="circle590"
     r="0.639"
     cy="111.267"
     cx="87.170998"
     class="cls-12" />
  <circle
     style="isolation:isolate;fill:#ffffff"
     id="circle592"
     r="0.639"
     cy="111.267"
     cx="87.170998"
     class="cls-12" />
  <circle
     style="isolation:isolate;fill:#ffffff"
     id="circle594"
     r="0.63999999"
     cy="111.267"
     cx="89.948997"
     class="cls-12" />
  <polygon
     style="isolation:isolate;fill:#aaccff;fill-opacity:1"
     id="polygon596"
     points="98.111,128.187 93.283,130.87 94.347,142.737 106.025,142.737 107.805,131.184 102.411,128.187 "
     class="cls-11" />
  <polygon
     style="isolation:isolate;fill:#ffcebd"
     id="polygon598"
     points="100.261,132.253 98.111,128.32 98.111,125.528 102.411,125.528 102.411,128.32 "
     class="cls-8" />
  <path
     style="isolation:isolate;fill:#4d5068"
     inkscape:connector-curvature="0"
     id="path600"
     d="m 104.265,119.731 a 2.327,2.327 0 0 0 -0.216,-0.521 l -0.527,-1.029 a 1.4,1.4 0 0 0 -1.209,-0.714 6.072,6.072 0 0 0 -1.536,-0.54 1.985,1.985 0 0 0 -0.992,0.268 1.836,1.836 0 0 1 -0.392,0.177 3.36,3.36 0 0 1 -0.725,0.008 1.369,1.369 0 0 0 -1.249,1 0.96,0.96 0 0 1 -0.088,0.272 0.943,0.943 0 0 1 -0.167,0.179 c -0.737,0.705 -0.3,1.887 -0.185,2.754 a 1.946,1.946 0 0 0 0.41,1.354 l -0.2,-0.049 a 3.464,3.464 0 0 0 1.814,0.88 10.324,10.324 0 0 0 2.04,0.113 l 2.463,-0.026 a 0.723,0.723 0 0 0 0.447,-0.1 0.708,0.708 0 0 0 0.2,-0.479 c 0.13,-0.936 0.044,-1.87 0.123,-2.82 a 2.328,2.328 0 0 0 -0.011,-0.727 z"
     class="cls-13" />
  <path
     style="opacity:0.3;isolation:isolate;fill:#191c3c"
     inkscape:connector-curvature="0"
     id="path602"
     d="m 98.111,127.132 0.6,1.046 a 2.212,2.212 0 0 0 3.7,0.21 v -2.861 h -4.3 v 1.6 z"
     class="cls-145" />
  <path
     style="isolation:isolate;fill:#ffcebd"
     inkscape:connector-curvature="0"
     id="path604"
     d="m 97.765,121.216 v 3.276 a 4.208,4.208 0 0 0 0.563,2.1 l 0.632,1.095 a 2.216,2.216 0 0 0 1.92,1.109 v 0 a 2.217,2.217 0 0 0 1.894,-1.066 l 0.128,-0.21 a 4.208,4.208 0 0 0 0.611,-2.183 V 119.3 h -5.667 z"
     class="cls-8" />
  <path
     style="isolation:isolate;fill:#ffcebd"
     inkscape:connector-curvature="0"
     id="path606"
     d="m 97.809,124.977 -0.658,-0.347 a 2.156,2.156 0 0 1 -0.373,-1.707 c 0,0 0.24,-0.587 0.693,-0.32 l 0.64,0.64 z"
     class="cls-8" />
  <path
     style="isolation:isolate;fill:#ffcebd"
     inkscape:connector-curvature="0"
     id="path608"
     d="m 103.354,124.977 0.658,-0.347 a 2.156,2.156 0 0 0 0.373,-1.707 c 0,0 -0.24,-0.587 -0.694,-0.32 l -0.64,0.64 z"
     class="cls-8" />
  <path
     style="isolation:isolate;fill:#4d5068"
     inkscape:connector-curvature="0"
     id="path610"
     d="m 97.582,121.745 a 10.891,10.891 0 0 1 0.124,1.54 c -0.006,0.2 -0.091,0.8 0.344,0.641 a 0.358,0.358 0 0 0 0.187,-0.333 c 0.033,-0.5 -0.379,-0.921 -0.143,-1.379 a 3.885,3.885 0 0 0 0.649,-0.929 2.748,2.748 0 0 0 -0.127,-0.824 0.806,0.806 0 0 1 0.154,-0.609 0.545,0.545 0 0 1 0.578,-0.185 1.444,1.444 0 0 1 0.471,0.405 1.289,1.289 0 0 0 1.343,0.269 4.79,4.79 0 0 0 0.75,-0.467 1.056,1.056 0 0 1 0.837,-0.191 1.215,1.215 0 0 1 0.674,1.008 4.739,4.739 0 0 1 0.146,1.4 9.656,9.656 0 0 1 -0.335,1.059 0.914,0.914 0 0 0 -0.034,0.264 0.988,0.988 0 0 0 0.181,0.442 0.1,0.1 0 0 0 0.045,0.047 0.1,0.1 0 0 0 0.1,-0.033 1.489,1.489 0 0 0 0.373,-0.88 2.351,2.351 0 0 0 0.111,-1.136 c -0.164,-0.871 0.044,-1.778 -0.1,-2.653 a 0.543,0.543 0 0 0 -0.09,-0.252 0.56,0.56 0 0 0 -0.27,-0.159 10.618,10.618 0 0 0 -3.9,-0.327 2.743,2.743 0 0 0 -1.341,0.285 1.878,1.878 0 0 0 -0.794,1.37 6.527,6.527 0 0 0 0.067,1.627 z"
     class="cls-13" />
  <path
     style="isolation:isolate;fill:#ffcebd"
     inkscape:connector-curvature="0"
     id="path612"
     d="m 86.258,137.9 -0.192,-0.548 -5.788,-3.708 v 0 a 1.017,1.017 0 0 1 1.256,-0.144 l 1.149,0.715 0.414,-0.09 a 1.3,1.3 0 0 1 0.975,0.175 l 0.568,0.363 1.915,0.577 a 1.735,1.735 0 0 1 1.12,1.042 l 0.409,1.069 z"
     class="cls-8" />
  <path
     style="isolation:isolate;fill:#ffcebd"
     inkscape:connector-curvature="0"
     id="path614"
     d="m 114.265,137.9 0.192,-0.548 5.788,-3.708 v 0 a 1.017,1.017 0 0 0 -1.256,-0.144 l -1.149,0.715 -0.414,-0.09 a 1.3,1.3 0 0 0 -0.975,0.175 l -0.567,0.363 -1.915,0.577 a 1.735,1.735 0 0 0 -1.12,1.042 l -0.408,1.069 z"
     class="cls-8" />
  <path
     style="isolation:isolate;fill:#aaccff;fill-opacity:1"
     inkscape:connector-curvature="0"
     id="path616"
     d="m 98.111,128.187 -5.7,3.168 a 3.432,3.432 0 0 0 -1.755,2.74 l -0.471,6.2 -1.834,-3.016 -2.446,0.734 2.178,4.828 4.77,-0.1 1.326,-6.6 3.934,-5.839 v -2.109 z"
     class="cls-11" />
  <path
     style="isolation:isolate;fill:#aaccff;fill-opacity:1"
     inkscape:connector-curvature="0"
     id="path618"
     d="m 102.411,128.187 5.7,3.168 a 3.432,3.432 0 0 1 1.755,2.74 l 0.471,6.2 1.834,-3.016 2.446,0.734 -2.18,4.833 -4.762,-0.078 -1.332,-6.63 -3.934,-5.839 v -2.109 z"
     class="cls-11" />
  <polygon
     style="isolation:isolate;fill:#ffffff"
     id="polygon620"
     points="98.336,134.201 100.261,132.253 98.111,128.187 96.845,128.89 "
     class="cls-12" />
  <polygon
     style="isolation:isolate;fill:#ffffff"
     id="polygon622"
     points="102.187,134.201 100.261,132.253 102.411,128.187 103.677,128.89 "
     class="cls-12" />
  <path
     style="isolation:isolate;fill:#4d5068"
     inkscape:connector-curvature="0"
     id="path624"
     d="m 99.368,125.815 c -0.08,0.158 -0.107,0.339 -0.191,0.5 a 0.4,0.4 0 0 1 -0.428,0.239 0.548,0.548 0 0 1 -0.279,-0.5 7.862,7.862 0 0 0 -0.122,-1.658 2.1,2.1 0 0 1 -0.129,-0.428 c -0.016,-0.136 0,-0.276 -0.023,-0.41 a 0.31,0.31 0 0 0 -0.267,-0.269 0.283,0.283 0 0 0 -0.248,0.233 0.876,0.876 0 0 0 0.022,0.363 6.335,6.335 0 0 1 0.132,1.785 4.282,4.282 0 0 0 0.367,1.727 2.72,2.72 0 0 0 0.249,0.565 2.1,2.1 0 0 0 1.275,0.859 6.25,6.25 0 0 0 1.564,0.139 2.522,2.522 0 0 0 1.01,-0.134 c 0.922,-0.394 1.214,-2.129 1.313,-2.983 a 5.148,5.148 0 0 0 -0.066,-1.077 6.954,6.954 0 0 1 0.166,-1.36 0.183,0.183 0 0 0 -0.032,-0.165 0.293,0.293 0 0 1 -0.164,-0.108 1.017,1.017 0 0 0 -0.346,0.507 1.2,1.2 0 0 0 -0.018,0.279 3.731,3.731 0 0 1 -0.076,1.095 10.535,10.535 0 0 0 -0.3,1.258 0.53,0.53 0 0 1 -0.287,0.493 0.352,0.352 0 0 1 -0.374,-0.237 1.3,1.3 0 0 1 -0.055,-0.476 0.726,0.726 0 0 0 -0.123,-0.457 0.822,0.822 0 0 0 -0.6,-0.213 c -0.663,-0.055 -1.576,-0.354 -1.97,0.433 z"
     class="cls-13" />
  <path
     style="isolation:isolate;fill:#ffcebd"
     inkscape:connector-curvature="0"
     id="path626"
     d="m 99.467,126.257 h 0.447 a 0.685,0.685 0 0 0 0.452,-0.17 l 0.272,-0.239 0.3,0.249 a 0.685,0.685 0 0 0 0.44,0.16 h 0.434 a 1.211,1.211 0 0 1 -1.286,1.236 c -0.881,-0.023 -0.766,-0.539 -1.059,-1.236 z"
     class="cls-8" />
  <polygon
     style="isolation:isolate;fill:#ffffff"
     id="polygon628"
     points="88.962,138.286 86.369,139.044 85.903,138.01 88.348,137.277 "
     class="cls-12" />
  <polygon
     style="isolation:isolate;fill:#ffffff"
     id="polygon630"
     points="111.606,138.286 114.199,139.044 114.665,138.01 112.22,137.277 "
     class="cls-12" />
  <circle
     style="isolation:isolate;fill:#aaccff;fill-opacity:1"
     id="circle632"
     r="2.3069999"
     cy="120.593"
     cx="85.561996"
     class="cls-146" />
  <polygon
     style="isolation:isolate;fill:#ffffff"
     id="polygon634"
     points="86.192,120.593 84.933,121.32 84.933,119.866 "
     class="cls-12" />
  <path
     id="_Rectangle_6"
     data-name="&lt;Rectangle&gt;"
     class="cls-5"
     d="m 165.779,174.589 h -16.876 a 2.086,2.086 0 0 1 -2.086,-2.086 v -9.906 a 1.175,1.175 0 0 1 1.175,-1.175 h 18.935 a 1.159,1.159 0 0 1 1.159,1.159 v 9.7 a 2.307,2.307 0 0 1 -2.307,2.308 z"
     inkscape:connector-curvature="0"
     style="isolation:isolate;fill:#b2b8fa" />
  <path
     id="_Path_12"
     data-name="&lt;Path&gt;"
     class="cls-5"
     d="m 147.058,161.9 8.905,-7.256 a 2.619,2.619 0 0 1 3.091,0 l 8.42,6.962 z"
     inkscape:connector-curvature="0"
     style="isolation:isolate;fill:#b2b8fa" />
  <path
     id="_Path_13"
     data-name="&lt;Path&gt;"
     class="cls-12"
     d="m 153.018,151.352 -3.116,3.026 v 16.612 h 14.757 V 152.6 a 1.25,1.25 0 0 0 -1.25,-1.25 h -10.391 z"
     inkscape:connector-curvature="0"
     style="isolation:isolate;fill:#ffffff" />
  <polygon
     id="_Path_14"
     data-name="&lt;Path&gt;"
     class="cls-5"
     points="152.833,154.064 149.902,157.415 149.902,154.378 "
     style="isolation:isolate;fill:#b2b8fa" />
  <path
     id="_Path_15"
     data-name="&lt;Path&gt;"
     class="cls-5"
     d="m 153.018,151.352 -3.116,3.026 h 2.285 a 0.831,0.831 0 0 0 0.831,-0.831 z"
     inkscape:connector-curvature="0"
     style="isolation:isolate;fill:#b2b8fa" />
  <path
     id="_Path_16"
     data-name="&lt;Path&gt;"
     class="cls-3"
     d="m 147.433,174.641 c 0,0 8.214,-5.73 8.214,-6.249 l -8.589,-6.493 a 4.9,4.9 0 0 0 -0.241,1.7 v 10.462 a 0.585,0.585 0 0 0 0.616,0.58 z"
     inkscape:connector-curvature="0"
     style="isolation:isolate;fill:#e0e3fd" />
  <path
     id="_Path_17"
     data-name="&lt;Path&gt;"
     class="cls-3"
     d="m 167.626,174.641 c 0,0 -8.034,-5.852 -8.034,-6.371 l 8.339,-6.127 a 2.309,2.309 0 0 1 0.311,1.455 v 10.462 a 0.585,0.585 0 0 1 -0.616,0.581 z"
     inkscape:connector-curvature="0"
     style="isolation:isolate;fill:#e0e3fd" />
  <path
     id="_Path_18"
     data-name="&lt;Path&gt;"
     class="cls-5"
     d="m 147.349,174.654 8.644,-7.107 a 2.59,2.59 0 0 1 3.056,0 l 8.644,7.107 z"
     inkscape:connector-curvature="0"
     style="isolation:isolate;fill:#b2b8fa" />
  <g
     style="isolation:isolate"
     id="_Group_28"
     data-name="&lt;Group&gt;">
    <path
       id="_Compound_Path_"
       data-name="&lt;Compound Path&gt;"
       class="cls-3"
       d="m 159.274,162.069 a 4.048,4.048 0 0 1 -1.976,0.444 3.305,3.305 0 0 1 -3.365,-3.465 4.062,4.062 0 0 1 4.053,-4.264 3.084,3.084 0 0 1 3.231,3.21 c 0,1.666 -0.933,2.643 -1.976,2.643 a 0.822,0.822 0 0 1 -0.822,-0.977 h -0.044 a 1.744,1.744 0 0 1 -1.566,0.977 1.259,1.259 0 0 1 -1.2,-1.4 2.621,2.621 0 0 1 2.631,-2.631 2.92,2.92 0 0 1 1.189,0.233 l -0.378,2.009 c -0.166,0.845 -0.033,1.233 0.333,1.244 0.567,0.011 1.2,-0.744 1.2,-2.032 a 2.545,2.545 0 0 0 -2.684,-2.76 3.409,3.409 0 0 0 -3.331,3.687 2.774,2.774 0 0 0 2.854,3 3.469,3.469 0 0 0 1.677,-0.389 z m -0.611,-4.8 a 1.806,1.806 0 0 0 -2.321,1.92 0.733,0.733 0 0 0 0.733,0.844 1.772,1.772 0 0 0 1.355,-1.511 z"
       inkscape:connector-curvature="0"
       style="fill:#e0e3fd" />
  </g>
  <path
     style="isolation:isolate;fill:#aaccff;fill-opacity:0.49019608"
     inkscape:connector-curvature="0"
     d="m 107.837,95.989 h 1.075 a 0.394,0.394 0 0 0 0.394,-0.394 v -1.371 a 0.394,0.394 0 0 0 -0.394,-0.393 h -0.841 a 0.331,0.331 0 0 1 -0.308,-0.22 q -0.045,-0.118 -0.1,-0.232 A 0.331,0.331 0 0 1 107.726,93 l 0.594,-0.595 a 0.394,0.394 0 0 0 0,-0.557 l -0.97,-0.969 a 0.394,0.394 0 0 0 -0.557,0 l -0.6,0.6 a 0.325,0.325 0 0 1 -0.359,0.069 c -0.086,-0.037 -0.178,-0.074 -0.258,-0.1 a 0.324,0.324 0 0 1 -0.206,-0.3 V 90.3 a 0.394,0.394 0 0 0 -0.394,-0.394 h -1.37 a 0.394,0.394 0 0 0 -0.394,0.394 v 0.841 a 0.331,0.331 0 0 1 -0.22,0.308 q -0.123,0.046 -0.244,0.1 a 0.33,0.33 0 0 1 -0.374,-0.06 l -0.6,-0.593 a 0.394,0.394 0 0 0 -0.557,0 l -0.966,0.972 a 0.394,0.394 0 0 0 0,0.557 l 0.6,0.6 a 0.325,0.325 0 0 1 0.07,0.359 c -0.036,0.086 -0.073,0.178 -0.1,0.258 a 0.324,0.324 0 0 1 -0.3,0.207 h -0.85 a 0.394,0.394 0 0 0 -0.393,0.395 v 1.371 a 0.394,0.394 0 0 0 0.395,0.393 h 0.841 a 0.332,0.332 0 0 1 0.308,0.22 q 0.045,0.118 0.1,0.232 a 0.331,0.331 0 0 1 -0.061,0.374 l -0.594,0.6 a 0.394,0.394 0 0 0 0,0.557 l 0.971,0.967 a 0.394,0.394 0 0 0 0.557,0 l 0.6,-0.6 a 0.325,0.325 0 0 1 0.359,-0.069 c 0.085,0.036 0.178,0.073 0.257,0.1 a 0.324,0.324 0 0 1 0.207,0.3 v 0.85 a 0.394,0.394 0 0 0 0.395,0.393 h 1.37 a 0.394,0.394 0 0 0 0.393,-0.394 v -0.85 a 0.331,0.331 0 0 1 0.22,-0.308 q 0.118,-0.044 0.232,-0.1 a 0.331,0.331 0 0 1 0.374,0.061 l 0.6,0.594 a 0.394,0.394 0 0 0 0.557,0 l 0.968,-0.97 a 0.394,0.394 0 0 0 0,-0.557 l -0.6,-0.6 a 0.326,0.326 0 0 1 -0.069,-0.359 c 0.084,-0.201 0.174,-0.449 0.179,-0.46 z m -5.454,-1.426 a 1.942,1.942 0 1 1 1.209,2.16 1.942,1.942 0 0 1 -1.209,-2.16 z"
     class="cls-11"
     data-name="&lt;Compound Path&gt;"
     id="_Compound_Path_2" />
  <rect
     style="isolation:isolate;fill:#ffffff"
     id="rect666"
     ry="4.0549998"
     rx="4.0549998"
     height="28.158001"
     width="86.357002"
     y="3.813"
     x="95.070999"
     class="cls-12" />
  <path
     style="isolation:isolate;fill:#008066"
     inkscape:connector-curvature="0"
     id="path668"
     d="M 177.373,3.813 H 99.126 a 4.055,4.055 0 0 0 -4.055,4.055 v 2.6 h 86.357 v -2.6 a 4.055,4.055 0 0 0 -4.055,-4.055 z"
     class="cls-9" />
  <circle
     style="isolation:isolate;fill:#d1d4fc"
     id="circle670"
     r="6.5960002"
     cy="21.568001"
     cx="107.842"
     class="cls-4" />
  <rect
     style="isolation:isolate;fill:#f0f1fe"
     id="rect672"
     height="1.777"
     width="56.173"
     y="15.515"
     x="117.992"
     class="cls-20" />
  <rect
     style="isolation:isolate;fill:#f0f1fe"
     id="rect674"
     height="1.777"
     width="56.173"
     y="20.688"
     x="117.992"
     class="cls-20" />
  <rect
     style="isolation:isolate;fill:#f0f1fe;fill-opacity:1"
     id="rect676"
     height="1.777"
     width="21.065001"
     y="25.861"
     x="117.992"
     class="cls-63" />
  <circle
     style="isolation:isolate;fill:#ffffff"
     id="circle678"
     r="0.84399998"
     cy="7.1420002"
     cx="102.089"
     class="cls-12" />
  <circle
     style="isolation:isolate;fill:#ffffff"
     id="circle680"
     r="0.84399998"
     cy="7.1420002"
     cx="105.754"
     class="cls-12" />
  <circle
     style="isolation:isolate;fill:#ffffff"
     id="circle682"
     r="0.84399998"
     cy="7.1420002"
     cx="109.418"
     class="cls-12" />
  <rect
     style="isolation:isolate;fill:#aaccff"
     id="rect684"
     ry="2.612"
     rx="2.612"
     height="12.381"
     width="12.381"
     y="5.3969998"
     x="195.097"
     class="cls-11" />
  <path
     style="isolation:isolate;fill:#ffffff"
     inkscape:connector-curvature="0"
     id="path686"
     d="m 198.044,11.956 v 0.018 l 1.677,0.55 v 0.933 l -2.685,-1.094 v -0.808 l 2.685,-1.094 v 0.929 z"
     class="cls-12" />
  <path
     style="isolation:isolate;fill:#ffffff"
     inkscape:connector-curvature="0"
     id="path688"
     d="m 201.015,13.989 h -1.036 l 1.51,-4.8 h 1.036 z"
     class="cls-12" />
  <path
     style="isolation:isolate;fill:#ffffff"
     inkscape:connector-curvature="0"
     id="path690"
     d="M 204.53,11.968 V 11.95 l -1.662,-0.553 v -0.93 l 2.67,1.094 v 0.808 l -2.67,1.094 v -0.93 z"
     class="cls-12" />
  <path
     id="_Path_19"
     data-name="&lt;Path&gt;"
     class="cls-11"
     d="m 234.8,100.061 -1.255,-0.836 a 0.522,0.522 0 0 0 -0.579,0 l -1.255,0.836 a 0.242,0.242 0 0 1 -0.333,-0.224 v -5.5 h 3.754 v 5.5 a 0.242,0.242 0 0 1 -0.332,0.224 z"
     inkscape:connector-curvature="0"
     style="isolation:isolate;fill:#e0e3fd;fill-opacity:1" />
  <path
     id="_Path_20"
     data-name="&lt;Path&gt;"
     class="cls-19"
     d="m 237.161,96.887 -3.771,-1.921 a 0.251,0.251 0 0 0 -0.234,0 l -3.72,2.018 a 0.251,0.251 0 0 1 -0.368,-0.26 l 0.661,-4.18 a 0.251,0.251 0 0 0 -0.075,-0.221 l -3.068,-2.914 a 0.251,0.251 0 0 1 0.133,-0.43 l 4.18,-0.663 a 0.251,0.251 0 0 0 0.187,-0.14 l 1.823,-3.819 a 0.251,0.251 0 0 1 0.45,-0.006 l 1.922,3.77 a 0.252,0.252 0 0 0 0.191,0.135 l 4.2,0.554 a 0.251,0.251 0 0 1 0.145,0.427 l -2.992,2.993 a 0.251,0.251 0 0 0 -0.069,0.223 l 0.769,4.162 a 0.251,0.251 0 0 1 -0.364,0.272 z"
     inkscape:connector-curvature="0"
     style="isolation:isolate;fill:#d1d4fc;fill-opacity:1" />
  <circle
     style="isolation:isolate;fill:#aaccff"
     r="6.48"
     cy="54.208"
     cx="80.277"
     class="cls-11"
     data-name="&lt;Path&gt;"
     id="_Path_21" />
  <polygon
     id="_Path_22"
     data-name="&lt;Path&gt;"
     class="cls-12"
     points="78.456,53.297 79.421,54.262 82.099,51.582 83.385,52.868 79.421,56.834 77.17,54.583 "
     style="isolation:isolate;fill:#ffffff" />
  <polygon
     id="_Path_23"
     data-name="&lt;Path&gt;"
     class="cls-148"
     points="177.586,137.383 175.871,139.654 174.156,137.383 "
     style="isolation:isolate;fill:#aaccff;fill-opacity:1" />
  <polygon
     id="_Path_24"
     data-name="&lt;Path&gt;"
     class="cls-148"
     points="174.174,137.383 172.46,139.654 170.745,137.383 "
     style="isolation:isolate;fill:#aaccff;fill-opacity:1" />
  <polygon
     id="_Path_25"
     data-name="&lt;Path&gt;"
     class="cls-148"
     points="179.283,139.63 174.165,145.45 169.048,139.63 "
     style="isolation:isolate;fill:#aaccff;fill-opacity:1" />
  <polygon
     id="_Path_26"
     data-name="&lt;Path&gt;"
     class="cls-149"
     points="175.889,139.63 174.165,145.45 172.46,139.63 "
     style="isolation:isolate;fill:#c4d9ff;fill-opacity:1" />
  <polygon
     id="_Path_27"
     data-name="&lt;Path&gt;"
     class="cls-149"
     points="172.442,139.63 170.745,137.383 169.048,139.63 "
     style="isolation:isolate;fill:#aaccff;fill-opacity:0.61176473" />
  <polygon
     id="_Path_28"
     data-name="&lt;Path&gt;"
     class="cls-149"
     points="175.853,139.63 174.156,137.383 172.46,139.63 "
     style="isolation:isolate;fill:#aaccff;fill-opacity:0.61176473" />
  <polygon
     id="_Path_29"
     data-name="&lt;Path&gt;"
     class="cls-149"
     points="179.283,139.63 177.586,137.383 175.889,139.63 "
     style="isolation:isolate;fill:#aaccff;fill-opacity:0.61176473" />
  <rect
     style="opacity:0;fill:#ddff55;fill-opacity:1;stroke:none;stroke-width:0.5;stroke-linecap:round;stroke-linejoin:round;paint-order:stroke markers fill"
     id="rect2848"
     width="98.199745"
     height="60.75668"
     x="389.97311"
     y="-30.025103" />
  <path
     class="cls-9"
     d="m -23.511952,98.292291 h -34.941 a 3.491,3.491 0 0 0 -3.491,3.490999 v 3.975 h 41.921 v -3.975 a 3.491,3.491 0 0 0 -3.489,-3.490999 z"
     id="path2852"
     inkscape:connector-curvature="0"
     style="isolation:isolate;fill:#0088aa;fill-opacity:1" />
</svg>
